<svg width="30" height="30" viewBox="0 0 30 30" fill="none" xmlns="http://www.w3.org/2000/svg">
<path d="M19 22.2917C19 24.4779 17.2091 26.25 14.9999 26.25C12.7908 26.25 11 24.4779 11 22.2917C11 20.1056 12.7908 18.3333 14.9999 18.3333C17.2091 18.3333 19 20.1056 19 22.2917ZM14.9999 6.45827C14.4481 6.45827 14 6.01505 14 5.46875V3.48952C14 2.94341 14.4481 2.5 14.9999 2.5C15.552 2.5 16 2.94341 16 3.48952V5.46875C16 6.01505 15.552 6.45827 14.9999 6.45827Z" fill="#FFC564"/>
<path d="M24.3789 19.2356C22.867 17.9708 22 16.1233 22 14.165V11.406C22 7.58617 18.859 4.479 14.9999 4.479C11.141 4.479 7.99999 7.58617 7.99999 11.406V14.165C7.99999 16.1233 7.13299 17.9719 5.61195 19.2445C5.41985 19.4068 5.26565 19.6084 5.16 19.8355C5.05434 20.0626 4.99975 20.3096 5 20.5596C5 21.5147 5.78497 22.2915 6.74993 22.2915H23.2499C24.215 22.2915 25 21.5147 25 20.5596C25 20.053 24.777 19.573 24.3789 19.2356V19.2356Z" fill="#FFDC75"/>
</svg>
