<svg width="24" height="24" viewBox="0 0 24 24" fill="none" xmlns="http://www.w3.org/2000/svg">
<path d="M11.6001 24C9.53211 24 7.8501 22.318 7.8501 20.25C7.8501 19.836 8.1861 19.5 8.6001 19.5C9.0141 19.5 9.3501 19.836 9.3501 20.25C9.3501 21.4911 10.3592 22.5 11.6001 22.5C12.8412 22.5 13.8501 21.4911 13.8501 20.25C13.8501 19.836 14.1861 19.5 14.6001 19.5C15.0141 19.5 15.3501 19.836 15.3501 20.25C15.3501 22.318 13.6681 24 11.6001 24Z" fill="#7EB5DC"/>
<path d="M19.85 21H3.35004C2.38507 21 1.6001 20.215 1.6001 19.2501C1.59994 18.9973 1.65457 18.7475 1.76021 18.5179C1.86585 18.2883 2.02 18.0843 2.21205 17.92C3.7331 16.635 4.6001 14.7671 4.6001 12.7881V9.99994C4.6001 6.14006 7.74016 3 11.6 3C15.4601 3 18.6002 6.14006 18.6002 9.99994V12.7881C18.6002 14.7671 19.4672 16.635 20.9781 17.913C21.3771 18.253 21.6002 18.7379 21.6002 19.2501C21.6002 20.215 20.8152 21 19.85 21ZM11.6 4.5C8.56708 4.5 6.1001 6.96698 6.1001 9.99994V12.7881C6.1001 15.2089 5.03918 17.495 3.19019 19.058C3.15504 19.088 3.1001 19.1501 3.1001 19.2501C3.1001 19.3859 3.21419 19.5 3.35004 19.5H19.85C19.9861 19.5 20.1002 19.3859 20.1002 19.2501C20.1002 19.1501 20.045 19.088 20.0121 19.06C18.1611 17.495 17.1002 15.2089 17.1002 12.7881V9.99994C17.1002 6.96698 14.6332 4.5 11.6 4.5Z" fill="#7EB5DC"/>
<path d="M11.6001 4.5C11.1861 4.5 10.8501 4.164 10.8501 3.75V0.75C10.8501 0.336 11.1861 0 11.6001 0C12.0141 0 12.3501 0.336 12.3501 0.75V3.75C12.3501 4.164 12.0141 4.5 11.6001 4.5Z" fill="#7EB5DC"/>
</svg>
