<svg width="24" height="24" viewBox="0 0 24 24" fill="none" xmlns="http://www.w3.org/2000/svg">
<path d="M5 22H17C18.0605 21.9989 19.0773 21.5772 19.8273 20.8273C20.5772 20.0773 20.9989 19.0605 21 18V8C20.9989 6.93946 20.5772 5.92266 19.8273 5.17274C19.0773 4.42283 18.0605 4.00106 17 4H16V3C16 2.73478 15.8946 2.48043 15.7071 2.29289C15.5196 2.10536 15.2652 2 15 2C14.7348 2 14.4804 2.10536 14.2929 2.29289C14.1054 2.48043 14 2.73478 14 3V4H8V3C8 2.73478 7.89464 2.48043 7.70711 2.29289C7.51957 2.10536 7.26522 2 7 2C6.73478 2 6.48043 2.10536 6.29289 2.29289C6.10536 2.48043 6 2.73478 6 3V4H5C3.93954 4.00132 2.92289 4.42318 2.17303 5.17303C1.42318 5.92289 1.00132 6.93954 1 8V18C1.00132 19.0605 1.42318 20.0771 2.17303 20.827C2.92289 21.5768 3.93954 21.9987 5 22ZM3 11H19V18C18.9995 18.5303 18.7886 19.0387 18.4136 19.4136C18.0387 19.7886 17.5303 19.9995 17 20H5C4.46973 19.9995 3.96133 19.7886 3.58637 19.4136C3.21141 19.0387 3.00053 18.5303 3 18V11Z" fill="#49B2AF"/>
</svg>
