<svg width="24" height="24" viewBox="0 0 24 24" fill="none" xmlns="http://www.w3.org/2000/svg">
<path d="M22.138 12.9257L9.66404 0.450731C9.51421 0.30124 9.3112 0.217285 9.09955 0.217285C8.88789 0.217285 8.68488 0.30124 8.53506 0.450731C8.38565 0.600705 8.30177 0.80377 8.30177 1.01546C8.30177 1.22715 8.38565 1.43022 8.53506 1.58019L21.01 14.0547C22.8681 15.9118 22.8681 18.9349 21.01 20.7921C19.1529 22.6493 16.1307 22.6493 14.2726 20.7916L2.54166 9.06114C1.28211 7.8016 1.28211 5.75052 2.54166 4.49145C3.80024 3.23191 5.8518 3.23239 7.11135 4.49193L17.2496 14.6302C17.3994 14.78 17.5183 14.9578 17.5994 15.1535C17.6804 15.3492 17.7222 15.559 17.7222 15.7708C17.7222 15.9826 17.6805 16.1924 17.5995 16.3881C17.5184 16.5838 17.3996 16.7617 17.2499 16.9115C17.1001 17.0613 16.9223 17.1801 16.7266 17.2612C16.5309 17.3423 16.3211 17.384 16.1093 17.384C15.8975 17.3841 15.6877 17.3424 15.492 17.2613C15.2963 17.1803 15.1184 17.0615 14.9686 16.9117L6.09469 8.03968C5.94366 7.89616 5.74253 7.81733 5.53421 7.82001C5.32588 7.82269 5.12685 7.90666 4.97956 8.05401C4.83227 8.20136 4.74838 8.40043 4.74579 8.60876C4.74321 8.81709 4.82212 9.01818 4.9657 9.16915L13.8387 18.0421C15.0901 19.294 17.1282 19.2954 18.3796 18.044C18.9809 17.4408 19.3185 16.6239 19.3185 15.7722C19.3185 14.9204 18.9809 14.1035 18.3796 13.5003L8.24177 3.36151C6.35869 1.47843 3.29431 1.47891 1.41171 3.36151C-0.470405 5.24459 -0.470405 8.30849 1.41267 10.1911L13.1422 21.9216C15.6234 24.4022 19.6588 24.4027 22.14 21.922C24.6207 19.4413 24.6197 15.4069 22.138 12.9257Z" fill="black"/>
</svg>
