<svg width="24" height="24" viewBox="0 0 24 24" fill="none" xmlns="http://www.w3.org/2000/svg">
<path fill-rule="evenodd" clip-rule="evenodd" d="M17.2875 2.88672H6.7125C3.825 2.88672 1.5 5.21172 1.5 8.06172V12.7117C1.5 15.5617 3.825 17.9242 6.7125 17.9617H8.9625L10.7625 20.5492C11.0625 20.9617 11.475 21.1867 12 21.1867C12.4875 21.1867 12.9375 20.9617 13.2375 20.5492L15.0375 17.9617H17.2875C20.1375 17.9617 22.5 15.5992 22.5 12.7492V8.09922C22.5 5.21172 20.1375 2.88672 17.2875 2.88672ZM6.9751 9.08673H17.0251C17.2126 9.08673 17.4001 8.93673 17.4001 8.71173C17.4001 8.48673 17.2501 8.33673 17.0251 8.33673H6.9751C6.7501 8.33673 6.6001 8.48673 6.6001 8.71173C6.6001 8.93673 6.7501 9.08673 6.9751 9.08673ZM6.9751 12.7617H17.0251C17.2126 12.7617 17.4001 12.6117 17.4001 12.3867C17.4001 12.1617 17.2501 12.0117 17.0251 12.0117H6.9751C6.7501 12.0117 6.6001 12.1617 6.6001 12.3867C6.6001 12.6117 6.7501 12.7617 6.9751 12.7617Z" fill="#7EB5DC"/>
<circle cx="19.7144" cy="4" r="4" fill="#DD3A3B"/>
</svg>
