<svg width="24" height="24" viewBox="0 0 24 24" fill="none" xmlns="http://www.w3.org/2000/svg">
<path fill-rule="evenodd" clip-rule="evenodd" d="M8.69221 11.3223C10.9904 11.3223 12.836 9.44196 12.836 7.17857C12.8708 4.88036 10.9904 3 8.69221 3C6.394 3 4.54846 4.88036 4.54846 7.14375C4.54846 9.44196 6.42882 11.3223 8.69221 11.3223Z" fill="#7EB5DC"/>
<path fill-rule="evenodd" clip-rule="evenodd" d="M8.69213 22.5001H2.84213C1.83231 22.5001 0.961776 22.0126 0.439454 21.1769C-0.082867 20.3412 -0.15251 19.3314 0.300169 18.426C1.79749 15.2921 5.00106 13.168 8.69213 13.168C12.3832 13.168 15.5868 15.3269 17.0841 18.426C17.5368 19.3314 17.4671 20.3064 16.9448 21.1769C16.4225 22.0126 15.552 22.5001 14.5421 22.5001H8.69213Z" fill="#7EB5DC"/>
<path fill-rule="evenodd" clip-rule="evenodd" d="M16.7115 14.4686C18.2217 14.4686 19.4344 13.233 19.4344 11.7457C19.4573 10.2356 18.2217 9 16.7115 9C15.2014 9 13.9887 10.2356 13.9887 11.7229C13.9887 13.233 15.2243 14.4686 16.7115 14.4686Z" fill="#7EB5DC"/>
<path fill-rule="evenodd" clip-rule="evenodd" d="M16.7116 21.8138H12.8676C12.204 21.8138 11.632 21.4934 11.2888 20.9443C10.9455 20.3951 10.8998 19.7316 11.1972 19.1367C12.1811 17.0774 14.2862 15.6816 16.7116 15.6816C19.137 15.6816 21.2421 17.1003 22.2259 19.1367C22.5234 19.7316 22.4776 20.3723 22.1344 20.9443C21.7912 21.4934 21.2192 21.8138 20.5556 21.8138H16.7116Z" fill="#7EB5DC"/>
</svg>
