<svg width="24" height="24" viewBox="0 0 24 24" fill="none" xmlns="http://www.w3.org/2000/svg">
<path d="M4 19V10.5C4 9.87902 4.14458 9.26657 4.42229 8.71115C4.7 8.15572 5.10322 7.67259 5.6 7.3L10.8 3.4C11.1462 3.14036 11.5673 3 12 3C12.4327 3 12.8538 3.14036 13.2 3.4L18.4 7.3C18.8968 7.67259 19.3 8.15572 19.5777 8.71115C19.8554 9.26657 20 9.87902 20 10.5V19C20 19.5304 19.7893 20.0391 19.4142 20.4142C19.0391 20.7893 18.5304 21 18 21H15.7C15.4348 21 15.1804 20.8946 14.9929 20.7071C14.8054 20.5196 14.7 20.2652 14.7 20V16.5C14.7 16.1332 14.6252 15.7703 14.4803 15.4334C14.3354 15.0964 14.1234 14.7926 13.8572 14.5403C13.591 14.288 13.2761 14.0926 12.9319 13.966C12.5877 13.8394 12.2212 13.7843 11.855 13.804C11.1474 13.8667 10.49 14.1958 10.0157 14.7246C9.54136 15.2535 9.28557 15.9427 9.3 16.653V20C9.3 20.2652 9.19464 20.5196 9.00711 20.7071C8.81957 20.8946 8.56522 21 8.3 21H6C5.46957 21 4.96086 20.7893 4.58579 20.4142C4.21071 20.0391 4 19.5304 4 19Z" fill="#6AAFE0"/>
</svg>
