<svg width="184" height="70" viewBox="0 0 184 70" fill="none" xmlns="http://www.w3.org/2000/svg">
<g clip-path="url(#clip0_557_14416)">
<path d="M17.203 52.9722C18.2252 53.565 19.5702 53.2417 20.162 52.2717L25.273 43.8652C25.8648 42.8413 25.542 41.4941 24.5736 40.9014L20.5386 38.4225C19.5164 37.8297 18.1714 38.1531 17.5796 39.1231L12.4686 47.5296C11.8768 48.5534 12.1996 49.9006 13.168 50.4934L17.203 52.9722ZM15.7504 50.7089C15.5352 50.4395 15.589 50.0084 15.858 49.7928C16.127 49.5773 16.5574 49.6312 16.7726 49.9006C16.9878 50.1701 16.934 50.6012 16.665 50.8167C16.396 51.0323 15.9656 50.9784 15.7504 50.7089ZM18.817 49.9006L15.1048 47.6373C14.7282 47.4218 14.6206 46.8829 14.8358 46.5057L18.7094 40.1469C18.9246 39.7697 19.4626 39.6619 19.8392 39.8775L23.5514 42.1408C23.928 42.3563 24.0356 42.8952 23.8204 43.2724L19.9468 49.6312C19.6778 50.0084 19.1936 50.1701 18.817 49.9006Z" fill="#F2911A"/>
<path d="M47.9228 39.5528C47.869 39.6067 47.8152 39.7145 47.8152 39.8762C47.8152 40.0378 47.9228 40.0917 48.0842 40.0917L55.2933 41.1156C55.6699 41.1695 55.9927 41.0617 56.2617 40.9L56.5307 40.6845L62.1797 36.6429C62.2873 36.589 62.3411 36.4273 62.2873 36.3196C62.2335 36.2118 62.1797 36.104 62.0183 36.104L54.8629 35.0801C54.4863 35.0263 54.1097 35.134 53.8407 35.3496L47.9228 39.5528Z" fill="#DD3A3B"/>
<path d="M63.0943 39.2834C63.1481 39.2295 63.2019 39.1756 63.1481 39.0678C63.1481 39.0139 63.0405 38.96 62.9867 38.9062L61.0499 38.6367C60.8885 38.6367 60.7271 38.6367 60.6195 38.7445L56.4231 41.7083C56.1541 41.9239 55.7775 41.9778 55.4547 41.9239L50.3975 41.1694C50.2361 41.1694 50.0747 41.1694 49.9671 41.2772L48.6221 42.2472C48.5145 42.3011 48.4607 42.4628 48.5145 42.5705C48.5683 42.6783 48.6221 42.7861 48.7835 42.7861L55.9927 43.81C56.3693 43.8638 56.6921 43.7561 56.9611 43.5944L63.0943 39.2834Z" fill="#DD3A3B"/>
<path d="M63.4167 41.655L61.7489 41.4395C61.5875 41.4395 61.4261 41.4395 61.3185 41.5472L57.1222 44.5111C56.8532 44.7266 56.4766 44.7805 56.1538 44.7266L51.0966 43.9722C50.9352 43.9722 50.7738 43.9722 50.6662 44.08L49.3212 45.0499C49.2136 45.1038 49.1598 45.2655 49.2136 45.3733C49.2674 45.481 49.3212 45.5888 49.4826 45.5888L56.6918 46.6127C57.0684 46.6666 57.3912 46.5588 57.6602 46.3971L63.5781 42.1939C63.6857 42.14 63.7395 41.9783 63.6857 41.8706C63.6319 41.7628 63.5243 41.7089 63.4167 41.655Z" fill="#DD3A3B"/>
<path d="M16.0189 17.2449L20.5381 14.6044C20.5919 14.5505 20.6995 14.6044 20.7533 14.6582L20.8609 14.8738C20.9147 14.9277 20.8609 15.0355 20.8071 15.0893L16.2879 17.7298C16.2341 17.7837 16.1265 17.7298 16.0727 17.676L15.9651 17.4604C15.9113 17.3526 15.9651 17.2987 16.0189 17.2449Z" fill="#29B7C9"/>
<path d="M16.826 18.6452L21.3452 16.0047C21.399 15.9509 21.5066 16.0047 21.5604 16.0586L21.668 16.2742C21.7218 16.3281 21.668 16.4358 21.6142 16.4897L17.095 19.1302C17.0412 19.1841 16.9336 19.1302 16.8798 19.0763L16.7722 18.8608C16.7184 18.753 16.7722 18.6991 16.826 18.6452Z" fill="#29B7C9"/>
<path d="M17.6868 20.1003L22.206 17.4598C22.2598 17.4059 22.3674 17.4598 22.4212 17.5137L22.5288 17.7831C22.5826 17.837 22.5288 17.9448 22.475 17.9987L17.9558 20.6392C17.902 20.6931 17.7944 20.6392 17.7406 20.5853L17.633 20.3698C17.5792 20.262 17.633 20.1542 17.6868 20.1003Z" fill="#29B7C9"/>
<path d="M22.2596 11.047L21.883 10.4004L20.9146 10.9932L20.6456 11.1548L20 11.532L15.1042 14.3881C13.9744 15.0347 13.5978 16.4897 14.2434 17.6214L17.0948 22.5252C16.3416 23.064 16.0726 24.1418 16.5568 24.9501L16.6106 25.004C17.1486 25.8662 18.2784 26.1895 19.1392 25.6506L25.2724 22.094C25.2724 22.094 25.3262 22.0402 25.38 22.0402C25.38 22.0402 25.4338 21.9863 25.4876 21.9863C26.2407 21.4474 26.4559 20.3696 25.9718 19.5613L25.3262 18.4836L25.0034 17.8908L21.9906 12.7715V12.7176C21.9906 12.7176 21.6678 12.2326 21.7754 11.6937C21.8292 11.4781 21.9906 11.2087 22.2596 11.047ZM23.766 22.1479L18.7626 25.0579C18.2246 25.3812 17.5252 25.1657 17.2024 24.6268L17.1486 24.5729C16.8258 24.034 17.041 23.3335 17.579 23.0101L22.5824 20.1002C22.5286 20.5313 22.5824 20.9624 22.7976 21.3396C23.0128 21.7168 23.3894 22.0402 23.766 22.1479ZM25.3262 19.9385C25.5952 20.4774 25.4876 21.1241 25.0034 21.4474C24.4654 21.7168 23.766 21.5013 23.4432 20.9624C23.1204 20.4235 23.3356 19.6691 23.8736 19.3458L24.6806 18.8608L25.3262 19.9385ZM21.3988 13.1487L24.3578 18.268L17.6866 22.1479L14.8352 17.2441C14.351 16.4358 14.62 15.412 15.427 14.9809L20.3228 12.1248L20.9684 11.7476H21.0222C20.9146 12.4481 21.2912 13.0409 21.3988 13.1487Z" fill="#1CB4DB"/>
<path d="M58.1987 23.818C58.1987 23.7102 58.3063 23.6563 58.3601 23.6024C58.4139 23.5485 58.5753 23.6024 58.6291 23.6563L59.5975 24.6802C59.6513 24.734 59.7589 24.7879 59.8127 24.7879L61.2115 24.5724C61.3191 24.5724 61.4267 24.5724 61.4805 24.6802C61.5343 24.7879 61.5343 24.8418 61.4805 24.9496L60.7273 26.2968L61.4267 27.6979C61.4805 27.8057 61.4805 27.9134 61.4267 27.9673C61.3729 28.0751 61.2653 28.0751 61.1577 28.0751L59.7589 27.8056C59.6513 27.8056 59.5975 27.8057 59.5437 27.8595L58.5215 28.8834C58.4677 28.9373 58.3601 28.9912 58.2525 28.9373C58.1449 28.8834 58.0911 28.8295 58.0911 28.7217L57.9297 27.3207C57.9297 27.2129 57.8759 27.159 57.7683 27.1051L56.5309 26.4585C56.4233 26.4046 56.3695 26.3507 56.3695 26.2429C56.3695 26.1351 56.4233 26.0812 56.5309 26.0274L57.8221 25.4346C57.9297 25.3807 57.9297 25.3268 57.9835 25.219L58.1987 23.818Z" fill="#49B2AF"/>
<path d="M51.9035 19.9931C51.2579 19.077 51.5269 17.8376 52.4415 17.1909C53.3561 16.5981 54.5935 16.8137 55.2391 17.7298C55.8847 18.6459 55.6157 19.8853 54.7011 20.532C53.7865 21.1786 52.5491 20.9092 51.9035 19.9931Z" fill="#F6C418"/>
<path d="M44.1567 45.2124C43.8339 44.7274 43.9953 44.1346 44.4257 43.8113C44.9099 43.488 45.5017 43.6497 45.8245 44.0808C46.1473 44.5657 45.9859 45.1585 45.5555 45.4818C45.0713 45.8052 44.4795 45.6974 44.1567 45.2124Z" fill="#F6C418"/>
<path d="M11.8767 17.2438H10.8545V16.166H9.67088V17.2438H8.64868V18.3215H9.67088V19.5071H10.8545V18.3215H11.8767V17.2438Z" fill="#F7C512"/>
<path d="M26.5641 51.032H25.4881V49.9004H24.3045V51.032H23.2823V52.1098H24.3045V53.2414H25.4881V52.1098H26.5641V51.032Z" fill="#DD3A3B"/>
<path d="M22.7977 32.9246H21.7755V31.793H20.5919V32.8707H19.5697L19.5159 33.9485L20.5919 34.0024L20.5381 35.134H21.7217L21.7755 34.0024H22.7977V32.9246Z" fill="#58C0EE"/>
<path d="M68.4738 40.0387H67.3978V38.9609H66.2142V40.0387H65.192V41.1703H66.2142V42.302H67.3978V41.1703H68.4738V40.0387Z" fill="#E1396B"/>
<path d="M78.1579 20.8004H77.0819V19.7227H75.8983V20.8004H74.8761V21.9321H75.8983V23.0637H77.0819V21.9321H78.1579V20.8004Z" fill="#BD75AE"/>
<path d="M58.0366 2.37073H56.9606V1.29297H55.7771V2.37073H54.7549V3.44848H55.7771V4.63401H56.9606V3.44848H58.0366V2.37073Z" fill="#46B4AB"/>
<path d="M67.129 5.06604H66.053V3.98828H64.9232V5.06604H63.8472V6.19768H64.9232V7.32933H66.053V6.19768H67.129V5.06604Z" fill="#DD3A3B"/>
<path d="M51.7425 50.1695H50.5051V48.8223H49.0526V50.1695H47.8152V51.4628H49.0526V52.8639H50.5051V51.4628H51.7425V50.1695Z" fill="#58BDED"/>
<path d="M26.1869 11.8547C26.5635 12.5014 26.0793 13.2558 25.3799 13.2558C24.6267 13.2558 24.1963 12.4475 24.5729 11.8547C24.8957 11.262 25.8103 11.262 26.1869 11.8547Z" fill="#F7C512"/>
<path d="M62.9863 48.7695L64.2237 49.5778L65.5687 48.9851L65.1921 50.4401L66.1605 51.5717L64.6541 51.6795L63.9009 52.9189L63.3629 51.5178L61.9103 51.1945L63.0939 50.2245L62.9863 48.7695Z" fill="#F7C512"/>
<path d="M17.7405 28.399C17.8481 28.4529 17.9019 28.5606 17.9019 28.7223C17.9019 28.884 17.8481 28.9917 17.7405 29.0456L16.7183 29.6384L15.6961 30.1773C15.5885 30.2312 15.4271 30.2312 15.3195 30.1773C15.2119 30.1234 15.1581 30.0156 15.1581 29.8539V27.4829C15.1581 27.3751 15.2119 27.2134 15.3195 27.1596C15.4271 27.1057 15.5885 27.1057 15.6961 27.1596L16.7183 27.7523L17.7405 28.399Z" fill="#F7C512"/>
<path d="M74.876 39.5535C74.4456 39.1224 74.3918 38.4218 74.876 37.9368L77.566 35.1886C77.9964 34.7575 78.6958 34.7575 79.18 35.1886C79.6104 35.6197 79.6642 36.3202 79.18 36.8052L76.49 39.5535C76.0596 39.9846 75.3602 39.9846 74.876 39.5535Z" fill="#58BDED"/>
<path d="M67.0751 26.1364C66.9675 26.0825 66.8061 26.1364 66.7523 26.2442L66.6985 26.298C66.5909 26.4058 66.5909 26.6214 66.6985 26.7291L71.3252 31.2557C71.917 30.8785 72.7778 30.9324 73.3158 31.4713C73.9614 32.064 73.9614 33.0879 73.4234 33.7346C73.3696 33.7884 73.3696 33.7884 73.3158 33.8423C73.262 33.8962 73.262 33.9501 73.2082 33.9501C72.6164 34.5429 71.5942 34.5429 70.9486 33.8962C70.4106 33.3573 70.303 32.549 70.6796 31.9024L65.9991 27.3758C65.8915 27.268 65.6763 27.268 65.5687 27.3758C65.4611 27.4836 65.4611 27.6452 65.4611 27.753L68.689 36.6445C68.8504 37.1295 69.2808 37.4528 69.8188 37.5067L73.7462 37.83L77.297 34.1657L76.8666 30.2318C76.8128 29.7469 76.4362 29.3158 76.0058 29.1541L67.0751 26.1364ZM69.9802 34.974L70.1954 35.6206C70.2492 35.7823 70.4106 35.944 70.6258 35.944L71.648 36.0517C71.917 36.1056 72.0784 36.3212 72.0784 36.5367C72.0784 36.5906 72.0784 36.6445 72.0246 36.6445C71.9708 36.8062 71.7556 36.9678 71.5404 36.9139L70.303 36.8062C69.9264 36.7523 69.6036 36.5367 69.496 36.1595L69.1194 35.1356C69.0656 34.8662 69.227 34.6506 69.4422 34.5968C69.6574 34.5429 69.9264 34.7045 69.9802 34.974Z" fill="#1CB4DB"/>
<path d="M14.8354 38.0441C14.8892 38.1519 14.8892 38.3135 14.7816 38.4213C14.674 38.5291 14.5664 38.583 14.4588 38.583L13.2752 38.4752L12.0916 38.3674C11.984 38.3674 11.8764 38.2596 11.8226 38.1519C11.7688 38.0441 11.7688 37.8285 11.8226 37.7208L12.522 36.7508L13.2214 35.7808C13.2752 35.673 13.4366 35.6191 13.5442 35.6191C13.6518 35.6191 13.7594 35.7269 13.8132 35.8347L14.2974 36.9124L14.8354 38.0441Z" fill="#BD75AE"/>
<path d="M78.2656 43.7579C78.3732 43.8118 78.427 43.9734 78.427 44.0812C78.427 44.189 78.3732 44.2968 78.2118 44.4045L77.1358 44.9434L76.0598 45.4823C75.9522 45.5362 75.7908 45.5362 75.6832 45.4823C75.5756 45.4284 75.5218 45.2667 75.5218 45.159L75.5756 43.9734L75.6294 42.7879C75.6294 42.6801 75.6832 42.5723 75.8446 42.4646C76.006 42.3568 76.1136 42.4107 76.2212 42.4646L77.2434 43.1112L78.2656 43.7579Z" fill="#F7C512"/>
<path d="M6.29161 27.8286C6.54536 27.7441 6.67505 27.4466 6.58127 27.1642C6.4875 26.8818 6.20578 26.7214 5.95202 26.8059C5.69827 26.8905 5.56859 27.1879 5.66236 27.4703C5.75613 27.7527 6.03786 27.9131 6.29161 27.8286Z" fill="#DD3A3B"/>
<path d="M12.2532 25.1115C12.038 24.5726 11.4462 23.926 9.67077 23.926C9.50937 23.926 9.29417 23.926 9.07897 23.926C9.07897 23.7104 9.07897 23.4949 9.02517 23.3332C8.86377 21.4471 8.21818 20.8544 7.73398 20.6927C7.24978 20.531 6.38898 20.6927 5.42058 22.2016C5.20539 22.5249 4.99019 22.9021 4.82879 23.2793C4.45219 23.0638 4.07559 22.9021 3.69899 22.7404C1.97739 22.0938 1.2242 22.471 0.901397 22.9021C0.578598 23.3332 0.417199 24.1954 1.4394 25.812C1.547 26.0276 1.7084 26.2431 1.86979 26.4048C1.6546 26.5665 1.4932 26.6742 1.3318 26.8359C-0.0669997 28.0214 -0.1208 28.8836 0.0943998 29.4225C0.309599 29.9614 0.901397 30.6081 2.67679 30.6081C2.89199 30.6081 3.05339 30.6081 3.26859 30.6081C3.26859 30.8236 3.26859 31.0392 3.32239 31.2008C3.48379 33.0869 4.12939 33.6797 4.61359 33.8413C4.82879 33.8952 5.04399 33.9491 5.36679 33.8413C5.79718 33.6797 6.33518 33.3024 6.92698 32.3325C7.14218 32.0091 7.35738 31.6319 7.51878 31.2547C7.89538 31.4703 8.27198 31.6319 8.64858 31.7936C9.67077 32.1708 10.3702 32.1708 10.8006 32.063C11.0696 31.9553 11.2848 31.7936 11.3924 31.6319C11.7152 31.2008 11.8766 30.3386 10.8544 28.722C10.7468 28.5064 10.5854 28.2909 10.424 28.1292C10.6392 27.9676 10.8006 27.8598 10.962 27.6981C12.3608 26.5126 12.4146 25.6504 12.2532 25.1115ZM6.01238 22.6865C6.44278 22.0399 6.87318 21.6088 7.19598 21.501C7.30358 21.4471 7.41118 21.4471 7.51878 21.501C7.94918 21.6088 8.27198 22.5788 8.27198 24.0337C7.68018 24.0876 7.08838 24.2493 6.44278 24.411C6.11998 24.1415 5.74338 23.926 5.42058 23.7643C5.63578 23.3332 5.85098 23.0099 6.01238 22.6865ZM4.02179 28.8836C4.23699 29.0453 4.39839 29.207 4.61359 29.3686L4.88259 29.5842C4.55979 29.6381 4.23699 29.692 3.91419 29.7458C3.96799 29.4764 3.96799 29.207 4.02179 28.8836ZM2.94579 26.7281C3.16099 26.5665 3.42999 26.4587 3.69899 26.297L3.64519 26.5665C3.59139 26.8359 3.53759 27.0515 3.48379 27.3209C3.32239 27.1053 3.10719 26.8898 2.94579 26.7281ZM4.12939 27.9676C4.18319 27.5903 4.29079 27.2131 4.39839 26.782C4.45219 26.4587 4.55979 26.1893 4.66739 25.8659C4.93639 25.7581 5.20539 25.6504 5.52818 25.5426C5.85098 25.4348 6.11998 25.327 6.44278 25.2732C6.71178 25.4887 6.98078 25.6504 7.19598 25.8659C7.51878 26.1354 7.84158 26.4048 8.11058 26.6742C8.05678 27.0515 7.94918 27.4287 7.84158 27.8598C7.78778 28.1831 7.68018 28.4525 7.57258 28.7759C7.30358 28.8836 7.03458 28.9914 6.71178 29.0992C6.38898 29.207 6.11998 29.3147 5.79718 29.3686C5.52818 29.1531 5.25919 28.9914 5.04399 28.7759C4.72119 28.5064 4.45219 28.237 4.12939 27.9676ZM8.54098 28.0753C8.59478 27.8059 8.64857 27.5903 8.70237 27.3209C8.91757 27.5364 9.07897 27.6981 9.24037 27.9137C9.02517 28.0753 8.75618 28.1831 8.48718 28.3448C8.48718 28.237 8.54098 28.1292 8.54098 28.0753ZM8.21818 25.7581C8.00298 25.5965 7.84158 25.4348 7.62638 25.2732L7.35738 25.0576C7.68018 25.0037 8.00298 24.9498 8.32578 24.8959C8.27198 25.1115 8.21818 25.4348 8.21818 25.7581ZM5.15159 24.411C5.25918 24.5187 5.42058 24.5726 5.52818 24.6804C5.42058 24.7343 5.31298 24.7343 5.20539 24.7882C5.15159 24.7882 5.04399 24.8421 4.99019 24.8959C5.04399 24.7343 5.09779 24.5726 5.15159 24.411ZM1.4932 23.4949C1.547 23.441 1.6008 23.3871 1.7084 23.3332C2.03119 23.2254 2.67679 23.2793 3.37619 23.5487C3.69899 23.6565 4.07559 23.8182 4.45219 24.0337C4.29079 24.411 4.12939 24.8421 4.02179 25.2732C3.42999 25.5426 2.94579 25.812 2.46159 26.0815C1.4932 24.8421 1.2242 23.8721 1.4932 23.4949ZM0.686198 29.207C0.524799 28.7759 1.0628 27.9675 2.30019 27.1053C2.62299 27.4826 2.94579 27.8598 3.32239 28.1831C3.21479 28.722 3.16099 29.2609 3.16099 29.7997C1.7622 29.9614 0.847598 29.6381 0.686198 29.207ZM6.17378 31.9014C5.63578 32.7636 5.04399 33.2486 4.66739 33.1408C4.23699 33.033 3.91419 32.063 3.91419 30.6081C4.50599 30.5542 5.09779 30.3925 5.68958 30.2308C6.01238 30.5003 6.38898 30.7158 6.71178 30.8775C6.55038 31.2547 6.38898 31.6319 6.17378 31.9014ZM7.08838 30.177C6.98078 30.0692 6.81938 30.0153 6.71178 29.9075C6.81938 29.8536 6.92698 29.8536 7.03458 29.7997C7.08838 29.7997 7.19598 29.7458 7.24978 29.692C7.19598 29.9075 7.14218 30.0692 7.08838 30.177ZM10.7468 31.1469C10.5316 31.4703 9.77837 31.4164 8.80997 31.093C8.48718 30.9853 8.11058 30.8236 7.73398 30.6081C7.89538 30.2308 8.05678 29.7997 8.16438 29.3686C8.70237 29.0992 9.24037 28.8298 9.72457 28.5603C10.693 29.7997 11.0158 30.7697 10.7468 31.1469ZM9.88597 27.4826C9.56317 27.1053 9.24037 26.7281 8.86378 26.4048C8.97137 25.8659 9.02517 25.327 9.02517 24.7882C10.424 24.6804 11.3386 25.0037 11.5 25.4348C11.6614 25.812 11.1234 26.6742 9.88597 27.4826Z" fill="#DD3A3B"/>
<path d="M38.0233 10.5076L39.3683 10.1304L38.2923 8.7832L38.0233 10.5076Z" fill="#8263A7"/>
<path d="M40.2289 3.61133C38.1845 4.04243 36.0863 4.79686 34.6875 6.89849L37.4851 17.0294C38.6687 14.8739 40.5517 14.0656 42.9726 13.5267C43.0264 13.5267 43.0802 13.4728 43.134 13.4189C43.1878 13.365 43.1878 13.3111 43.1878 13.2034L40.5517 3.82688C40.4979 3.66522 40.3365 3.61133 40.2289 3.61133ZM40.7131 11.479C40.6055 11.5867 40.4441 11.5328 40.3365 11.4251L39.6909 10.6167L37.9155 11.1017L37.7541 12.1256C37.7541 12.2873 37.5927 12.395 37.4313 12.3412C37.2699 12.3412 37.1623 12.1795 37.2161 12.0717L37.3775 10.8862L37.7541 8.13791C37.7541 7.97624 37.9155 7.86847 38.0769 7.92235C38.1307 7.92235 38.1845 7.97624 38.2383 8.03013L39.9599 10.1856L40.7131 11.1556C40.8745 11.2095 40.8745 11.3712 40.7131 11.479ZM32.6969 10.9401L31.6209 11.2634C31.7823 11.479 32.0513 11.6945 32.3741 11.9639C32.5355 11.6406 32.6431 11.2634 32.6969 10.9401Z" fill="#8263A7"/>
<path d="M27.6938 7.05961C27.5862 7.1135 27.4786 7.22128 27.5324 7.38294L30.1148 16.8133C30.1148 16.8672 30.1686 16.9211 30.2224 16.975C30.2762 17.0289 30.3838 17.0289 30.4376 16.975C32.751 16.1667 34.7954 15.8972 36.8936 17.1905L34.096 7.05961C31.8902 5.92797 29.6844 6.35907 27.6938 7.05961ZM31.7826 10.6701L31.6212 10.1851C31.5674 10.0234 31.675 9.91567 31.8364 9.86178C31.9978 9.80789 32.1054 9.91567 32.1592 10.0234L32.3206 10.5084L33.8808 10.0773C34.0422 10.0234 34.1498 10.1312 34.2036 10.239C34.2574 10.3468 34.1498 10.5084 33.9884 10.5623L33.289 10.7779C33.2352 11.0473 33.1276 11.6401 32.8586 12.2328C33.2352 12.4484 33.6656 12.5562 34.1498 12.5562C34.3112 12.5562 34.4188 12.6639 34.4188 12.8256C34.4188 12.9873 34.3112 13.095 34.1498 13.095C33.558 13.1489 33.02 12.9873 32.5896 12.7178C32.3206 13.1489 31.944 13.58 31.406 13.8495H31.3522C31.2446 13.9034 31.0832 13.8495 31.0294 13.7417C30.9756 13.6339 31.0294 13.4723 31.137 13.4184C31.5674 13.2028 31.8902 12.8795 32.1054 12.5023C31.5674 12.1251 31.1908 11.694 31.0294 11.4784L30.33 11.694C30.1686 11.7479 30.061 11.6401 30.0072 11.5323C29.9534 11.4245 30.061 11.2629 30.2224 11.209L31.7826 10.6701Z" fill="#8263A7"/>
<path d="M70.8949 20.6404L69.7113 16.0599L71.1639 10.725C71.2177 10.5095 71.1101 10.2939 70.8949 10.24L67.7745 9.4317C67.5593 9.37781 67.3441 9.48559 67.2903 9.70114L65.8377 15.036L62.5022 18.431C62.1256 18.8621 61.9642 19.2932 62.0718 19.7243C62.1794 20.1554 62.556 20.4787 63.094 20.6404L69.2809 22.3109C69.8189 22.4726 70.3031 22.3648 70.6259 22.0414C70.9487 21.7181 71.0025 21.1792 70.8949 20.6404ZM64.9769 16.976L66.2681 15.6827L66.8061 15.8443C67.0213 15.8982 67.2365 15.7905 67.2903 15.5749C67.3441 15.3594 67.2365 15.1438 67.0213 15.0899L66.6447 14.9821L66.8599 14.2277L67.2365 14.3355C67.4517 14.3894 67.6669 14.2816 67.7207 14.0661C67.7745 13.8505 67.6669 13.635 67.4517 13.5811L67.0751 13.4733L67.2903 12.7189L67.6669 12.8266C67.8821 12.8805 68.0973 12.7727 68.1511 12.5572C68.2049 12.3416 68.0973 12.1261 67.8821 12.0722L67.5055 11.9644L67.9359 10.4017L70.2493 11.0483L68.9043 16.1138C68.9043 16.1677 68.9043 16.2755 68.9043 16.3293L69.4423 18.3232L64.9769 16.976Z" fill="#F2911A"/>
<path d="M36.1399 31.9017C37.8077 31.9017 39.0989 30.5545 39.0989 28.9379C39.0989 27.3212 37.7539 25.974 36.1399 25.974C34.5259 25.974 33.1809 27.3212 33.1809 28.9379C33.1809 30.5545 34.5259 31.9017 36.1399 31.9017ZM39.7445 41.6015C40.0135 38.8532 49.805 32.3328 51.0424 21.9863C49.4823 27.914 38.7223 34.165 35.6557 33.5722C32.4815 32.9794 28.3927 29.0456 27.7471 24.088C26.8863 35.0811 33.1809 53.1874 51.7956 63.8033C43.7795 58.0912 39.3679 45.5353 39.7445 41.6015ZM33.1809 46.9903C32.6429 53.9957 33.6113 61.8633 37.0007 70.0004C35.2791 64.5577 36.0323 57.9834 37.4311 52.9179C35.8709 51.0319 34.4721 49.0919 33.1809 46.9903Z" fill="#1CB4DB"/>
<path d="M38.8301 20.2609C38.7763 20.207 38.7763 20.207 38.7225 20.207C38.6687 20.207 38.6149 20.207 38.6149 20.2609L37.5389 21.662C37.4313 21.8237 37.4313 22.0392 37.5389 22.2548L38.9377 24.2486C39.0453 24.3564 39.1529 24.4642 39.3143 24.5181L41.5201 25.2186C41.7891 25.3264 42.1119 25.2186 42.2733 24.9492L43.1879 23.7636C43.2417 23.7097 43.2417 23.6559 43.1879 23.6559C43.1341 23.6559 43.1341 23.5481 43.0803 23.5481L40.6593 22.7936C40.4441 22.7398 40.2827 22.632 40.1751 22.4164L38.8301 20.2609Z" fill="#F2911A"/>
<path d="M43.1884 25.1107C43.1346 25.1646 43.1346 25.2185 43.1346 25.2724C43.1346 25.3263 43.1884 25.3801 43.2422 25.434L43.4574 25.5957C43.5112 25.6496 43.565 25.6496 43.6188 25.6496C43.6726 25.6496 43.7264 25.5957 43.7802 25.5418L44.2106 24.6257L43.9416 24.4102L43.1884 25.1107Z" fill="#F2911A"/>
<path d="M44.9635 23.5486L45.2325 23.6564C45.2863 23.6564 45.3401 23.6564 45.3401 23.6025C45.3401 23.5486 45.3939 23.5486 45.3401 23.4947L42.9191 19.6148C42.8115 19.4531 42.7039 19.3453 42.5425 19.2915L38.8303 18.1598C38.6689 18.1059 38.5075 18.1598 38.4537 18.2676C38.3461 18.3754 38.3461 18.537 38.4537 18.6987L40.5519 22.0397C40.6057 22.1475 40.7133 22.2014 40.8209 22.2553L44.6407 23.4408L44.2103 23.9797L43.9413 23.818L43.7799 24.0336L44.4793 24.5725L44.6407 24.3569L44.4255 24.1952L44.9635 23.5486Z" fill="#F2911A"/>
<path d="M52.7648 5.44267C53.1414 5.98155 53.4104 6.41265 53.7332 6.95153C53.3028 7.16708 52.8724 7.38263 52.4958 7.54429C52.2268 7.65207 52.0654 7.86762 52.3344 8.08317C52.442 8.19094 52.7648 8.24483 52.9262 8.19094C53.249 8.08317 53.5718 7.92151 53.8408 7.75984C54.056 7.65207 54.2174 7.65207 54.3788 7.86762C54.594 8.24483 54.863 8.56816 55.132 8.99926C54.7554 9.16093 54.4864 9.32259 54.1636 9.43036C53.8408 9.53814 53.7332 9.75369 53.8946 10.077C54.1098 10.4003 54.3788 10.2387 54.594 10.1309C54.9168 10.0231 55.1858 9.80758 55.5086 9.64592C55.7776 10.077 56.1004 10.562 56.4232 11.1009C56.0466 11.2625 55.6162 11.4242 55.2396 11.6398C55.0782 11.7475 54.9168 12.017 54.9706 12.1786C55.0782 12.4481 55.401 12.4481 55.67 12.2864C56.0466 12.0709 56.4232 11.8553 56.8536 11.6398C57.3916 12.502 57.9296 13.3642 58.4676 14.2264C58.629 14.4958 58.36 14.8191 58.0372 14.7653C57.9296 14.7653 57.7682 14.7114 57.6606 14.6575C53.9484 13.6336 50.2362 12.6636 46.4702 11.6398C45.7708 11.4242 45.717 11.4242 45.8784 10.7776C46.7392 7.32874 47.6538 3.93381 48.6222 0.538878C48.676 0.323327 48.8912 0.215551 48.9988 0C49.1602 0.161663 49.4292 0.269439 49.5368 0.431102C50.021 1.18553 50.5052 1.93996 51.097 2.80217C50.6128 3.01772 50.1824 3.17938 49.752 3.39493C49.6444 3.44882 49.5906 3.66437 49.5368 3.77215C49.752 3.82603 50.021 4.04158 50.1824 3.9877C50.6128 3.82603 51.0432 3.55659 51.4198 3.34104C51.7426 3.82603 52.0654 4.31102 52.3344 4.79601C52.1192 4.90379 51.7426 5.06545 51.4736 5.22712C51.3122 5.33489 51.1508 5.60433 51.2046 5.71211C51.3122 6.03543 51.635 5.98154 51.904 5.87377C52.173 5.81988 52.442 5.60433 52.7648 5.44267ZM50.828 10.3465C51.366 10.5081 51.904 10.6698 52.3882 10.7776C52.5496 10.8314 52.8186 10.7776 52.9262 10.6698C52.98 10.6159 52.9262 10.3465 52.8724 10.2387C52.0654 8.99926 51.2584 7.70596 50.4514 6.46654C50.3438 6.35876 50.1286 6.14321 50.021 6.1971C49.8596 6.25098 49.6982 6.41265 49.6444 6.52042C49.3754 7.43652 49.1064 8.4065 48.8912 9.32259C48.7836 9.64592 48.945 9.86147 49.3216 9.96924C49.8058 10.077 50.3438 10.2387 50.828 10.3465Z" fill="#1CB4DB"/>
<path d="M89.7069 34.7607V26.501C89.7069 26.0821 89.8264 25.723 90.0057 25.5434C90.1849 25.304 90.4837 25.2441 90.7825 25.2441C91.0813 25.2441 91.38 25.3638 91.5593 25.5434C91.7386 25.7828 91.8581 26.0821 91.8581 26.501V34.7607C91.8581 35.1797 91.7386 35.5388 91.5593 35.7183C91.38 35.9577 91.0813 36.0176 90.7825 36.0176C90.4837 36.0176 90.2447 35.8979 90.0057 35.7183C89.8264 35.5388 89.7069 35.2395 89.7069 34.7607Z" fill="#1596B7"/>
<path d="M95.5031 25.3633H98.2518C98.9689 25.3633 99.5665 25.4231 100.104 25.5428C100.642 25.6625 101.06 25.9019 101.479 26.3209C102.554 27.2786 103.092 28.6552 103.092 30.5704C103.092 31.2288 103.032 31.7675 102.913 32.3062C102.793 32.8448 102.614 33.3237 102.375 33.7426C102.136 34.1616 101.837 34.5207 101.479 34.8798C101.18 35.1192 100.881 35.3586 100.523 35.4783C100.164 35.6579 99.8055 35.7178 99.4469 35.7776C99.0884 35.8375 98.6104 35.8973 98.1323 35.8973H95.5629C95.2044 35.8973 94.9056 35.8375 94.6666 35.7178C94.4873 35.5981 94.3678 35.4185 94.308 35.2389C94.2483 34.9995 94.2483 34.7601 94.2483 34.401V26.68C94.2483 26.2012 94.3678 25.902 94.5471 25.6625C94.7263 25.483 95.0848 25.4231 95.5031 25.3633ZM96.3397 27.099V34.2214H97.9531C98.3116 34.2214 98.6104 34.2214 98.7896 34.2214C98.9689 34.2214 99.2079 34.1616 99.3872 34.1017C99.6262 34.0419 99.8055 33.9222 99.925 33.8025C100.642 33.204 101.001 32.1865 101.001 30.6901C101.001 29.6727 100.821 28.8946 100.523 28.3559C100.224 27.8172 99.8055 27.518 99.3872 27.3983C98.9092 27.2786 98.3714 27.1589 97.7141 27.1589C97.7738 27.099 96.3397 27.099 96.3397 27.099Z" fill="#1596B7"/>
<path d="M108.589 34.3412L106.916 27.6377V34.8798C106.916 35.2988 106.857 35.5981 106.677 35.7776C106.498 35.9572 106.259 36.0769 105.96 36.0769C105.661 36.0769 105.422 35.9572 105.243 35.7776C105.064 35.5981 104.944 35.2988 104.944 34.8798V26.5603C104.944 26.0815 105.064 25.7822 105.303 25.6027C105.542 25.4231 105.841 25.3633 106.259 25.3633H106.916C107.335 25.3633 107.574 25.4231 107.753 25.483C107.932 25.5428 108.052 25.6625 108.171 25.8421C108.231 26.0217 108.35 26.3209 108.47 26.7399L110.024 32.4857L111.577 26.7399C111.697 26.3209 111.756 26.0217 111.876 25.8421C111.995 25.6625 112.115 25.5428 112.294 25.483C112.473 25.4231 112.772 25.3633 113.131 25.3633H113.788C114.206 25.3633 114.505 25.4231 114.744 25.6027C114.983 25.7822 115.103 26.0815 115.103 26.5603V34.8798C115.103 35.2988 115.043 35.5981 114.864 35.7776C114.684 35.9572 114.445 36.0769 114.147 36.0769C113.848 36.0769 113.609 35.9572 113.43 35.7776C113.25 35.5981 113.131 35.2988 113.131 34.8798V27.6377L111.458 34.3412C111.338 34.7601 111.278 35.1192 111.219 35.2988C111.159 35.4784 111.039 35.6579 110.86 35.8375C110.681 36.017 110.442 36.0769 110.083 36.0769C109.844 36.0769 109.605 36.017 109.426 35.8973C109.247 35.7776 109.127 35.6579 109.008 35.4784C108.888 35.2988 108.828 35.1192 108.769 34.9397C108.709 34.7601 108.649 34.5207 108.589 34.3412Z" fill="#1596B7"/>
<path d="M128.906 32.7251C128.906 33.3835 128.727 33.9222 128.428 34.4609C128.129 34.9995 127.591 35.3586 126.994 35.6579C126.337 35.9572 125.62 36.0769 124.783 36.0769C123.767 36.0769 122.871 35.8973 122.214 35.4784C121.735 35.1791 121.317 34.82 121.078 34.3412C120.779 33.8623 120.66 33.3835 120.66 32.9645C120.66 32.7251 120.72 32.4857 120.899 32.3062C121.078 32.1266 121.317 32.0069 121.556 32.0069C121.795 32.0069 121.975 32.0668 122.154 32.2463C122.333 32.4259 122.453 32.6054 122.572 32.9047C122.692 33.2638 122.871 33.5032 122.99 33.7426C123.17 33.982 123.349 34.1616 123.648 34.2813C123.946 34.401 124.305 34.5207 124.783 34.5207C125.44 34.5207 125.918 34.401 126.337 34.1017C126.755 33.8025 126.934 33.4434 126.934 33.0244C126.934 32.6653 126.815 32.366 126.635 32.1865C126.396 31.9471 126.157 31.8273 125.799 31.7076C125.44 31.5879 125.022 31.4682 124.424 31.3485C123.648 31.169 123.05 30.9894 122.512 30.75C121.975 30.5106 121.616 30.2113 121.317 29.7924C121.018 29.3734 120.899 28.8946 120.899 28.2961C120.899 27.6975 121.078 27.2187 121.377 26.7399C121.676 26.2611 122.154 25.9618 122.751 25.7224C123.349 25.483 124.066 25.3633 124.843 25.3633C125.5 25.3633 126.038 25.4231 126.516 25.6027C126.994 25.7822 127.352 25.9618 127.711 26.2611C128.01 26.5005 128.249 26.7997 128.368 27.099C128.488 27.3983 128.607 27.6975 128.607 27.9369C128.607 28.1763 128.548 28.4158 128.368 28.5953C128.189 28.7749 127.95 28.8946 127.711 28.8946C127.472 28.8946 127.293 28.8347 127.173 28.715C127.054 28.5953 126.934 28.4158 126.755 28.1165C126.576 27.6975 126.337 27.3983 126.038 27.1589C125.799 26.9194 125.321 26.7997 124.723 26.7997C124.185 26.7997 123.707 26.9194 123.409 27.1589C123.05 27.3983 122.931 27.6975 122.931 28.0566C122.931 28.2362 122.99 28.4756 123.11 28.5953C123.229 28.7749 123.409 28.8946 123.588 29.0143C123.767 29.134 124.006 29.1938 124.185 29.2537C124.365 29.3135 124.723 29.4333 125.201 29.553C125.799 29.6727 126.337 29.8522 126.815 30.0318C127.293 30.2113 127.711 30.3909 128.01 30.6303C128.368 30.8697 128.607 31.169 128.787 31.5281C128.846 31.7675 128.906 32.1865 128.906 32.7251Z" fill="#1596B7"/>
<path d="M139.662 32.6053C139.662 32.9644 139.602 33.3235 139.423 33.6826C139.244 34.1016 139.005 34.4607 138.646 34.8198C138.288 35.179 137.869 35.4782 137.272 35.7176C136.734 35.957 136.077 36.0767 135.36 36.0767C134.822 36.0767 134.284 36.0169 133.866 35.8972C133.447 35.7775 132.969 35.6578 132.611 35.4184C132.252 35.179 131.894 34.8797 131.595 34.5206C131.296 34.2213 131.057 33.8024 130.878 33.4432C130.699 33.0243 130.519 32.6053 130.46 32.1265C130.34 31.6477 130.34 31.1688 130.34 30.6302C130.34 29.7922 130.46 29.0142 130.699 28.3558C130.938 27.6974 131.296 27.0989 131.774 26.6201C132.252 26.1412 132.79 25.7821 133.388 25.5427C133.985 25.3033 134.643 25.1836 135.36 25.1836C136.196 25.1836 136.973 25.3631 137.63 25.7223C138.288 26.0814 138.825 26.5003 139.184 26.9792C139.542 27.458 139.722 27.9368 139.722 28.4156C139.722 28.655 139.662 28.8944 139.483 29.074C139.303 29.2536 139.124 29.3733 138.885 29.3733C138.586 29.3733 138.407 29.3134 138.288 29.1937C138.168 29.074 137.989 28.8346 137.81 28.5353C137.511 27.9967 137.212 27.6375 136.853 27.3383C136.495 27.0989 136.017 26.9792 135.479 26.9792C134.583 26.9792 133.925 27.3383 133.388 27.9967C132.85 28.655 132.611 29.6127 132.611 30.8097C132.611 31.6477 132.73 32.306 132.969 32.8447C133.208 33.3834 133.507 33.8024 133.925 34.0418C134.344 34.2812 134.822 34.4607 135.419 34.4607C136.017 34.4607 136.555 34.2812 136.973 33.9819C137.391 33.6826 137.69 33.2038 137.929 32.6652C137.989 32.3659 138.108 32.1863 138.288 32.0068C138.407 31.8272 138.646 31.7674 138.945 31.7674C139.184 31.7674 139.423 31.8272 139.602 32.0068C139.781 32.1863 139.662 32.306 139.662 32.6053Z" fill="#1596B7"/>
<path d="M143.725 26.501V29.4937H148.326V26.501C148.326 26.0821 148.446 25.723 148.625 25.5434C148.804 25.304 149.043 25.2441 149.402 25.2441C149.76 25.2441 150 25.3638 150.179 25.5434C150.358 25.7828 150.478 26.0821 150.478 26.501V34.7607C150.478 35.1797 150.358 35.5388 150.179 35.7183C150 35.9577 149.701 36.0176 149.402 36.0176C149.103 36.0176 148.804 35.8979 148.625 35.7183C148.446 35.4789 148.326 35.1797 148.326 34.7607V31.2294H143.725V34.7607C143.725 35.1797 143.606 35.5388 143.426 35.7183C143.247 35.9577 142.948 36.0176 142.65 36.0176C142.351 36.0176 142.052 35.8979 141.873 35.7183C141.694 35.4789 141.574 35.1797 141.574 34.7607V26.501C141.574 26.0821 141.694 25.723 141.873 25.5434C142.052 25.304 142.291 25.2441 142.65 25.2441C143.008 25.2441 143.247 25.3638 143.426 25.5434C143.606 25.723 143.725 26.0821 143.725 26.501Z" fill="#1596B7"/>
<path d="M157.349 25.1836C158.425 25.1836 159.381 25.423 160.158 25.842C160.935 26.2609 161.532 26.9193 161.95 27.7573C162.369 28.5952 162.548 29.5528 162.548 30.6302C162.548 31.4681 162.429 32.1863 162.249 32.8447C162.01 33.5031 161.711 34.1016 161.293 34.5804C160.875 35.0593 160.337 35.4184 159.68 35.7176C159.022 35.957 158.305 36.0767 157.469 36.0767C156.632 36.0767 155.915 35.957 155.258 35.6578C154.601 35.4184 154.063 34.9994 153.645 34.5206C153.226 34.0418 152.868 33.4432 152.688 32.7849C152.449 32.1265 152.33 31.3484 152.33 30.5703C152.33 29.7922 152.449 29.0142 152.688 28.3558C152.928 27.6974 153.226 27.0989 153.704 26.6201C154.123 26.1412 154.66 25.7821 155.318 25.5427C155.796 25.3033 156.513 25.2434 157.349 25.1836ZM160.337 30.6302C160.337 29.8521 160.218 29.1937 159.979 28.655C159.74 28.1164 159.381 27.6375 158.903 27.3981C158.425 27.0989 157.887 26.9792 157.29 26.9792C156.871 26.9792 156.453 27.039 156.095 27.2186C155.736 27.3981 155.437 27.6375 155.138 27.9368C154.899 28.2361 154.66 28.655 154.541 29.1339C154.421 29.6127 154.302 30.1514 154.302 30.7499C154.302 31.3484 154.362 31.8871 154.541 32.3659C154.66 32.8447 154.899 33.2637 155.198 33.5629C155.497 33.8622 155.796 34.1016 156.154 34.2812C156.513 34.4607 156.931 34.5206 157.349 34.5206C157.887 34.5206 158.365 34.4009 158.843 34.1016C159.321 33.8024 159.68 33.3834 159.919 32.8447C160.218 32.1265 160.337 31.4681 160.337 30.6302Z" fill="#1596B7"/>
<path d="M168.942 25.1836C170.017 25.1836 170.973 25.423 171.75 25.842C172.527 26.2609 173.125 26.9193 173.543 27.7573C173.961 28.5952 174.14 29.5528 174.14 30.6302C174.14 31.4681 174.021 32.1863 173.842 32.8447C173.603 33.5031 173.304 34.1016 172.886 34.5804C172.467 35.0593 171.93 35.4184 171.272 35.7176C170.615 35.957 169.898 36.0767 169.061 36.0767C168.225 36.0767 167.508 35.957 166.85 35.6578C166.193 35.4184 165.655 34.9994 165.237 34.5206C164.819 34.0418 164.46 33.4432 164.281 32.7849C164.042 32.1265 163.922 31.3484 163.922 30.5703C163.922 29.7922 164.042 29.0142 164.281 28.3558C164.52 27.6974 164.819 27.0989 165.297 26.6201C165.715 26.1412 166.253 25.7821 166.91 25.5427C167.448 25.3033 168.165 25.2434 168.942 25.1836ZM171.989 30.6302C171.989 29.8521 171.87 29.1937 171.631 28.655C171.392 28.1164 171.033 27.6375 170.555 27.3981C170.077 27.0989 169.539 26.9792 168.942 26.9792C168.524 26.9792 168.105 27.039 167.747 27.2186C167.388 27.3981 167.089 27.6375 166.791 27.9368C166.552 28.2361 166.313 28.655 166.193 29.1339C166.074 29.6127 165.954 30.1514 165.954 30.7499C165.954 31.3484 166.014 31.8871 166.193 32.3659C166.313 32.8447 166.552 33.2637 166.85 33.5629C167.149 33.8622 167.448 34.1016 167.806 34.2812C168.165 34.4607 168.583 34.5206 169.002 34.5206C169.539 34.5206 170.017 34.4009 170.495 34.1016C170.973 33.8024 171.332 33.3834 171.571 32.8447C171.81 32.1265 171.989 31.4681 171.989 30.6302Z" fill="#1596B7"/>
<path d="M178.025 26.501V34.1622H182.327C182.685 34.1622 182.924 34.222 183.104 34.4016C183.283 34.5811 183.402 34.7607 183.402 35.06C183.402 35.2994 183.343 35.5388 183.104 35.7183C182.924 35.8979 182.685 35.9577 182.327 35.9577H177.188C176.71 35.9577 176.411 35.838 176.172 35.6585C175.993 35.4789 175.873 35.1198 175.873 34.641V26.501C175.873 26.0821 175.993 25.723 176.172 25.5434C176.351 25.304 176.59 25.2441 176.949 25.2441C177.248 25.2441 177.546 25.3638 177.726 25.5434C177.905 25.723 178.025 26.0821 178.025 26.501Z" fill="#1596B7"/>
<path d="M90.3044 35.3584V27.0987C90.3044 26.6797 90.424 26.3206 90.6032 26.1411C90.7825 25.9016 91.0813 25.8418 91.38 25.8418C91.6788 25.8418 91.9776 25.9615 92.1568 26.1411C92.3361 26.3805 92.4556 26.6797 92.4556 27.0987V35.3584C92.4556 35.7773 92.3361 36.1364 92.1568 36.316C91.9776 36.5554 91.6788 36.6152 91.38 36.6152C91.0813 36.6152 90.8422 36.4955 90.6032 36.316C90.3642 36.1364 90.3044 35.7773 90.3044 35.3584Z" fill="#1AB4DB"/>
<path d="M96.1007 25.9609H98.8494C99.5664 25.9609 100.164 26.0208 100.702 26.1405C101.24 26.2602 101.658 26.4996 102.076 26.9186C103.152 27.8762 103.69 29.2528 103.69 31.1681C103.69 31.8265 103.63 32.3651 103.51 32.9038C103.391 33.4425 103.211 33.9213 102.972 34.3403C102.733 34.7593 102.435 35.1184 102.076 35.4775C101.777 35.7169 101.479 35.9563 101.12 36.076C100.762 36.2556 100.403 36.3154 100.044 36.3753C99.686 36.4351 99.2079 36.495 98.7299 36.495H95.9812C95.6226 36.495 95.3239 36.4351 95.0848 36.3154C94.9056 36.1957 94.7861 36.0162 94.7263 35.8366C94.6665 35.5972 94.6665 35.3578 94.6665 34.9987V27.2777C94.6665 26.7989 94.7861 26.4996 94.9653 26.2602C95.3239 26.0806 95.6226 26.0208 96.1007 25.9609ZM96.9372 27.6967V34.8191H98.5506C98.9091 34.8191 99.2079 34.8191 99.3872 34.8191C99.5664 34.8191 99.8055 34.7592 99.9847 34.6994C100.224 34.6395 100.403 34.5198 100.523 34.4001C101.24 33.8016 101.598 32.7841 101.598 31.2878C101.598 30.2703 101.419 29.4922 101.12 28.9536C100.821 28.4149 100.403 28.1156 99.9847 27.9959C99.5664 27.8762 98.9689 27.7565 98.3116 27.7565C98.3713 27.6967 96.9372 27.6967 96.9372 27.6967Z" fill="#1AB4DB"/>
<path d="M109.187 34.9388L107.514 28.2353V35.4775C107.514 35.8965 107.454 36.1957 107.275 36.3753C107.096 36.5548 106.857 36.6745 106.558 36.6745C106.259 36.6745 106.02 36.5548 105.841 36.3753C105.661 36.1957 105.542 35.8965 105.542 35.4775V27.158C105.542 26.6792 105.661 26.3799 105.9 26.2003C106.139 26.0208 106.438 25.9609 106.857 25.9609H107.514C107.932 25.9609 108.171 26.0208 108.35 26.0806C108.53 26.1405 108.649 26.2602 108.769 26.4398C108.888 26.6193 108.948 26.9186 109.067 27.3375L110.621 33.0834L112.175 27.3375C112.294 26.9186 112.354 26.6193 112.473 26.4398C112.533 26.2602 112.713 26.1405 112.892 26.0806C113.071 26.0208 113.37 25.9609 113.728 25.9609H114.386C114.804 25.9609 115.103 26.0208 115.342 26.2003C115.581 26.3799 115.7 26.6792 115.7 27.158V35.4775C115.7 35.8965 115.64 36.1957 115.461 36.3753C115.282 36.5548 115.043 36.6745 114.744 36.6745C114.445 36.6745 114.206 36.5548 114.027 36.3753C113.848 36.1957 113.728 35.8965 113.728 35.4775V28.2353L112.055 34.9388C111.936 35.3578 111.876 35.7169 111.816 35.8965C111.756 36.076 111.637 36.2556 111.458 36.4351C111.278 36.6147 110.98 36.6745 110.621 36.6745C110.382 36.6745 110.143 36.6147 109.964 36.495C109.785 36.3753 109.665 36.2556 109.546 36.076C109.426 35.8965 109.366 35.7169 109.306 35.5373C109.306 35.3578 109.247 35.1184 109.187 34.9388Z" fill="#1AB4DB"/>
<path d="M129.504 33.3228C129.504 33.9812 129.324 34.5198 129.026 35.0585C128.727 35.5972 128.189 35.9563 127.591 36.2556C126.934 36.5548 126.217 36.6745 125.381 36.6745C124.365 36.6745 123.468 36.495 122.811 36.076C122.333 35.7767 121.915 35.4176 121.676 34.9388C121.437 34.46 121.257 33.9812 121.257 33.5622C121.257 33.3228 121.317 33.0834 121.496 32.9038C121.676 32.7243 121.915 32.6046 122.154 32.6046C122.393 32.6046 122.572 32.6644 122.751 32.844C122.931 33.0235 123.05 33.2031 123.17 33.5023C123.289 33.8615 123.468 34.1009 123.588 34.3403C123.707 34.5797 123.946 34.7593 124.245 34.879C124.544 34.9987 124.902 35.1184 125.381 35.1184C126.038 35.1184 126.516 34.9987 126.934 34.6994C127.352 34.4001 127.532 34.041 127.532 33.6221C127.532 33.2629 127.412 32.9637 127.233 32.7841C126.994 32.5447 126.755 32.425 126.396 32.3053C126.038 32.1856 125.62 32.0659 125.022 31.9462C124.245 31.7666 123.648 31.5871 123.11 31.3477C122.572 31.1083 122.214 30.809 121.915 30.39C121.616 29.9711 121.496 29.4922 121.496 28.8937C121.496 28.2952 121.676 27.8164 121.975 27.3375C122.273 26.8587 122.751 26.5595 123.349 26.32C123.946 26.0806 124.663 25.9609 125.44 25.9609C126.098 25.9609 126.635 26.0208 127.113 26.2003C127.591 26.3799 127.95 26.5595 128.309 26.8587C128.607 27.0981 128.846 27.3974 128.966 27.6967C129.085 27.9959 129.205 28.2952 129.205 28.5346C129.205 28.774 129.145 29.0134 128.966 29.193C128.787 29.3725 128.548 29.4922 128.309 29.4922C128.069 29.4922 127.89 29.4324 127.771 29.3127C127.651 29.193 127.532 29.0134 127.352 28.7141C127.173 28.2952 126.934 27.9959 126.635 27.7565C126.396 27.5171 125.918 27.3974 125.321 27.3974C124.783 27.3974 124.305 27.5171 124.006 27.7565C123.648 27.9959 123.528 28.2952 123.528 28.6543C123.528 28.8339 123.588 29.0733 123.707 29.193C123.827 29.3725 124.006 29.4922 124.185 29.6119C124.365 29.7316 124.604 29.7915 124.783 29.8514C124.962 29.9112 125.321 30.0309 125.799 30.1506C126.396 30.2703 126.934 30.4499 127.412 30.6294C127.89 30.809 128.309 30.9885 128.607 31.228C128.966 31.4674 129.205 31.7666 129.384 32.1257C129.444 32.3651 129.504 32.7841 129.504 33.3228Z" fill="#1AB4DB"/>
<path d="M140.259 33.203C140.259 33.5621 140.2 33.9212 140.02 34.2803C139.841 34.6394 139.602 35.0584 139.244 35.4175C138.885 35.7766 138.467 36.0759 137.869 36.3153C137.331 36.5547 136.674 36.6744 135.957 36.6744C135.419 36.6744 134.882 36.6146 134.463 36.4948C133.985 36.3751 133.567 36.2554 133.208 36.016C132.85 35.7766 132.491 35.4774 132.193 35.1182C131.894 34.819 131.655 34.4 131.476 34.0409C131.296 33.6219 131.117 33.203 131.057 32.7241C130.938 32.2453 130.938 31.7665 130.938 31.2278C130.938 30.3899 131.057 29.6118 131.296 28.9534C131.535 28.2951 131.894 27.6965 132.372 27.2177C132.85 26.7389 133.388 26.3798 133.985 26.1404C134.583 25.9009 135.24 25.7812 135.957 25.7812C136.794 25.7812 137.571 25.9608 138.228 26.3199C138.885 26.679 139.423 27.098 139.781 27.5768C140.14 28.0556 140.319 28.5345 140.319 29.0133C140.319 29.2527 140.259 29.4921 140.08 29.6717C139.901 29.8512 139.722 29.9709 139.483 29.9709C139.184 29.9709 139.005 29.9111 138.885 29.7914C138.766 29.6717 138.586 29.4322 138.407 29.133C138.108 28.5943 137.81 28.2352 137.451 27.9359C137.092 27.6965 136.614 27.5768 136.077 27.5768C135.18 27.5768 134.523 27.9359 133.985 28.5943C133.447 29.2527 133.208 30.2103 133.208 31.4074C133.208 32.2453 133.328 32.9037 133.567 33.4424C133.806 33.981 134.105 34.4 134.523 34.6394C134.941 34.8788 135.419 35.0584 136.017 35.0584C136.614 35.0584 137.152 34.8788 137.571 34.5796C137.989 34.2803 138.288 33.8015 138.527 33.2628C138.586 32.9636 138.706 32.784 138.885 32.6044C139.005 32.4249 139.244 32.365 139.542 32.365C139.781 32.365 140.02 32.4249 140.2 32.6044C140.2 32.7241 140.259 32.9037 140.259 33.203Z" fill="#1AB4DB"/>
<path d="M144.323 27.0987V30.0913H148.924V27.0987C148.924 26.6797 149.043 26.3206 149.223 26.1411C149.402 25.9016 149.641 25.8418 150 25.8418C150.298 25.8418 150.597 25.9615 150.776 26.1411C150.956 26.3805 151.075 26.6797 151.075 27.0987V35.3584C151.075 35.7773 150.956 36.1364 150.776 36.316C150.597 36.5554 150.298 36.6152 150 36.6152C149.701 36.6152 149.402 36.4955 149.223 36.316C149.043 36.0766 148.924 35.7773 148.924 35.3584V31.827H144.323V35.3584C144.323 35.7773 144.203 36.1364 144.024 36.316C143.845 36.5554 143.546 36.6152 143.247 36.6152C142.948 36.6152 142.65 36.4955 142.47 36.316C142.291 36.0766 142.172 35.7773 142.172 35.3584V27.0987C142.172 26.6797 142.291 26.3206 142.47 26.1411C142.65 25.9016 142.889 25.8418 143.247 25.8418C143.606 25.8418 143.845 25.9615 144.024 26.1411C144.203 26.3206 144.323 26.6797 144.323 27.0987Z" fill="#1AB4DB"/>
<path d="M157.947 25.7812C159.022 25.7812 159.979 26.0207 160.755 26.4396C161.532 26.8586 162.13 27.517 162.548 28.3549C162.966 29.1928 163.146 30.1505 163.146 31.2278C163.146 32.0658 163.026 32.784 162.847 33.4424C162.608 34.1008 162.309 34.6993 161.891 35.1781C161.472 35.6569 160.935 36.016 160.277 36.3153C159.62 36.5547 158.903 36.6744 158.066 36.6744C157.23 36.6744 156.513 36.5547 155.855 36.2554C155.198 35.9562 154.66 35.5971 154.242 35.1182C153.824 34.6394 153.465 34.0409 153.286 33.3825C153.047 32.7241 152.927 31.9461 152.927 31.168C152.927 30.3899 153.047 29.6118 153.286 28.9534C153.525 28.2951 153.824 27.6965 154.302 27.2177C154.72 26.7389 155.258 26.3798 155.915 26.1404C156.393 25.9009 157.11 25.7812 157.947 25.7812ZM160.935 31.2278C160.935 30.4497 160.815 29.7914 160.576 29.2527C160.337 28.714 159.979 28.2352 159.501 27.9958C159.022 27.6965 158.485 27.5768 157.887 27.5768C157.469 27.5768 157.051 27.6367 156.692 27.8162C156.334 27.9958 156.035 28.2352 155.736 28.5345C155.497 28.8337 155.258 29.2527 155.138 29.7315C155.019 30.2103 154.899 30.749 154.899 31.3475C154.899 31.9461 154.959 32.4847 155.138 32.9636C155.258 33.4424 155.497 33.8613 155.796 34.1606C156.094 34.4599 156.393 34.6993 156.752 34.8788C157.11 35.0584 157.529 35.1182 157.947 35.1182C158.485 35.1182 158.963 34.9985 159.441 34.6993C159.919 34.4 160.277 33.981 160.516 33.4424C160.815 32.7241 160.935 32.0658 160.935 31.2278Z" fill="#1AB4DB"/>
<path d="M169.539 25.7812C170.615 25.7812 171.571 26.0207 172.348 26.4396C173.125 26.8586 173.722 27.517 174.14 28.3549C174.559 29.1928 174.738 30.1505 174.738 31.2278C174.738 32.0658 174.618 32.784 174.439 33.4424C174.2 34.1008 173.901 34.6993 173.483 35.1781C173.065 35.6569 172.527 36.016 171.87 36.3153C171.212 36.5547 170.495 36.6744 169.659 36.6744C168.822 36.6744 168.105 36.5547 167.448 36.2554C166.791 36.016 166.253 35.5971 165.835 35.1182C165.416 34.6394 165.058 34.0409 164.878 33.3825C164.639 32.7241 164.52 31.9461 164.52 31.168C164.52 30.3899 164.639 29.6118 164.878 28.9534C165.117 28.2951 165.416 27.6965 165.894 27.2177C166.313 26.7389 166.85 26.3798 167.508 26.1404C168.045 25.9009 168.763 25.7812 169.539 25.7812ZM172.587 31.2278C172.587 30.4497 172.467 29.7914 172.228 29.2527C171.989 28.714 171.631 28.2352 171.153 27.9958C170.675 27.6965 170.137 27.5768 169.539 27.5768C169.121 27.5768 168.703 27.6367 168.344 27.8162C167.986 27.9958 167.687 28.2352 167.388 28.5345C167.149 28.8337 166.91 29.2527 166.791 29.7315C166.671 30.2103 166.552 30.749 166.552 31.3475C166.552 31.9461 166.611 32.4847 166.791 32.9636C166.91 33.4424 167.149 33.8613 167.448 34.1606C167.747 34.4599 168.045 34.6993 168.404 34.8788C168.763 35.0584 169.181 35.1182 169.599 35.1182C170.137 35.1182 170.615 34.9985 171.093 34.6993C171.571 34.4 171.93 33.981 172.169 33.4424C172.408 32.7241 172.587 32.0658 172.587 31.2278Z" fill="#1AB4DB"/>
<path d="M178.622 27.0987V34.7598H182.924C183.283 34.7598 183.522 34.8197 183.701 34.9992C183.88 35.1788 184 35.3584 184 35.6576C184 35.9569 183.94 36.1364 183.701 36.316C183.522 36.4955 183.283 36.5554 182.924 36.5554H177.785C177.307 36.5554 177.009 36.4357 176.77 36.2561C176.531 36.0766 176.471 35.7175 176.471 35.2386V27.0987C176.471 26.6797 176.59 26.3206 176.77 26.1411C176.949 25.9016 177.188 25.8418 177.546 25.8418C177.905 25.8418 178.144 25.9615 178.323 26.1411C178.503 26.3206 178.622 26.6797 178.622 27.0987Z" fill="#1AB4DB"/>
<path d="M89.7069 41.1035H90.0057V43.4976L91.8581 41.1035H92.1569V43.9764H91.8581V41.5823L90.0057 43.9764H89.7069C89.7069 44.0363 89.7069 41.1035 89.7069 41.1035Z" fill="#1AB4DB"/>
<path d="M93.0532 41.8223H93.352V42.7799H94.7263V41.8223H95.0251V43.977H94.7263V43.0193H93.352V43.977H93.0532V41.8223Z" fill="#1AB4DB"/>
<path d="M97.9531 43.7961V44.5742H97.6543V44.0356H95.6824V44.5742H95.4434V43.7961H95.5629C95.8616 43.7961 95.9214 43.1976 95.9812 42.5991L96.0409 41.8809H97.6543V43.7961H97.9531ZM95.9812 43.7961H97.3555V42.1203H96.2799V42.5991C96.2202 43.0779 96.1604 43.6166 95.9812 43.7961Z" fill="#1AB4DB"/>
<path d="M98.5506 41.8223H98.8494V43.558L100.284 41.8223H100.523V43.977H100.224V42.2412L98.7896 43.977H98.5506V41.8223Z" fill="#1AB4DB"/>
<path d="M103.212 43.437C103.212 43.7961 102.913 44.0356 102.375 44.0356H101.419V41.8809H102.375C102.853 41.8809 103.152 42.0604 103.152 42.4195C103.152 42.6589 103.032 42.8385 102.793 42.8984C103.032 42.9582 103.212 43.1378 103.212 43.437ZM101.658 42.8385H102.315C102.674 42.8385 102.853 42.7188 102.853 42.4794C102.853 42.24 102.674 42.1203 102.315 42.1203H101.658V42.8385ZM102.913 43.437C102.913 43.1976 102.733 43.0779 102.375 43.0779H101.658V43.856H102.315C102.733 43.7961 102.913 43.6764 102.913 43.437Z" fill="#1AB4DB"/>
<path d="M103.869 41.8223H104.168V43.558L105.602 41.8223H105.841V43.977H105.542V42.2412L104.108 43.977H103.869V41.8223Z" fill="#1AB4DB"/>
<path d="M108.828 43.7961V44.5742H108.53V44.0356H106.558V44.5742H106.259V43.7961H106.438C106.737 43.7961 106.797 43.1976 106.857 42.5991V41.8809H108.47V43.7961H108.828ZM106.857 43.7961H108.231V42.1203H107.155V42.5991C107.096 43.0779 107.036 43.6166 106.857 43.7961Z" fill="#1AB4DB"/>
<path d="M111.278 41.8223L110.203 44.2762C110.024 44.6952 109.785 44.8149 109.486 44.8149C109.306 44.8149 109.067 44.755 108.948 44.6353L109.067 44.3959C109.187 44.5156 109.306 44.5755 109.486 44.5755C109.665 44.5755 109.785 44.5156 109.964 44.2164L110.083 43.977L109.127 41.8223H109.426L110.263 43.6777L111.099 41.8223H111.278Z" fill="#1AB4DB"/>
<path d="M113.25 42.6595V43.9763H113.011V43.6171C112.892 43.8566 112.593 43.9763 112.294 43.9763C111.816 43.9763 111.517 43.7369 111.517 43.3179C111.517 42.9588 111.756 42.7194 112.354 42.7194H113.071V42.6595C113.071 42.3004 112.892 42.061 112.473 42.061C112.175 42.061 111.936 42.1807 111.756 42.3004L111.637 42.061C111.876 41.8814 112.175 41.7617 112.533 41.7617C112.952 41.8216 113.25 42.1208 113.25 42.6595ZM112.952 43.3777V43.0186H112.294C111.876 43.0186 111.756 43.1982 111.756 43.3777C111.756 43.6171 111.936 43.7967 112.294 43.7967C112.653 43.7967 112.892 43.677 112.952 43.3777Z" fill="#1AB4DB"/>
<path d="M115.82 41.8223V43.977H115.521V42.0617H114.505V42.6003C114.445 43.3784 114.386 44.0368 113.908 44.0368C113.848 44.0368 113.788 44.0368 113.728 43.977V43.7375C113.788 43.7375 113.788 43.7375 113.848 43.7375C114.206 43.7375 114.266 43.139 114.266 42.6003L114.326 41.8223C114.266 41.8223 115.82 41.8223 115.82 41.8223Z" fill="#1AB4DB"/>
<path d="M118.449 43.3173C118.449 43.7961 118.15 44.0356 117.553 44.0356H116.656V41.8809H116.955V42.6589H117.612C118.15 42.5991 118.449 42.8385 118.449 43.3173ZM118.15 43.3173C118.15 43.0181 117.971 42.8385 117.553 42.8385H116.955V43.7961H117.553C117.911 43.7961 118.15 43.6166 118.15 43.3173Z" fill="#1AB4DB"/>
<path d="M118.987 41.8223H119.286V42.7799H120.66V41.8223H120.959V43.977H120.66V43.0193H119.286V43.977H118.987V41.8223Z" fill="#1AB4DB"/>
<path d="M121.556 42.9595C121.556 42.3011 122.034 41.8223 122.632 41.8223C123.229 41.8223 123.707 42.3011 123.707 42.9595C123.707 43.6178 123.229 44.0967 122.632 44.0967C122.034 44.0967 121.556 43.558 121.556 42.9595ZM123.468 42.9595C123.468 42.4208 123.11 42.1215 122.692 42.1215C122.273 42.1215 121.855 42.4806 121.855 42.9595C121.855 43.4383 122.214 43.7974 122.692 43.7974C123.17 43.7974 123.468 43.4383 123.468 42.9595Z" fill="#1AB4DB"/>
<path d="M124.185 42.9595C124.185 42.3011 124.663 41.8223 125.321 41.8223C125.679 41.8223 125.978 41.942 126.157 42.2412L125.918 42.3609C125.799 42.1215 125.56 42.0617 125.261 42.0617C124.783 42.0617 124.424 42.4208 124.424 42.8996C124.424 43.3784 124.783 43.7375 125.261 43.7375C125.5 43.7375 125.739 43.6178 125.918 43.4383L126.157 43.558C125.978 43.8572 125.679 43.977 125.321 43.977C124.663 44.0368 124.185 43.6178 124.185 42.9595Z" fill="#1AB4DB"/>
<path d="M128.189 42.1203H127.352V44.0356H127.054V42.1203H126.217V41.8809H128.129L128.189 42.1203Z" fill="#1AB4DB"/>
<path d="M130.4 43.3173C130.4 43.7961 130.101 44.0356 129.504 44.0356H128.607V41.8809H128.906V42.6589H129.563C130.101 42.5991 130.4 42.8385 130.4 43.3173ZM130.101 43.3173C130.101 43.0181 129.922 42.8385 129.504 42.8385H128.966V43.7961H129.504C129.922 43.7961 130.101 43.6166 130.101 43.3173Z" fill="#1AB4DB"/>
<path d="M131.954 42.8989C131.954 42.7193 132.073 42.5996 132.252 42.5996C132.432 42.5996 132.551 42.7193 132.551 42.8989C132.551 43.0784 132.432 43.1981 132.252 43.1981C132.073 43.1981 131.954 43.0784 131.954 42.8989Z" fill="#1AB4DB"/>
<path d="M136.674 42.121C136.674 42.7195 136.196 43.0786 135.479 43.0786H134.702V43.9764H134.404V41.1035H135.479C136.256 41.1035 136.674 41.5225 136.674 42.121ZM136.375 42.121C136.375 41.6422 136.077 41.4028 135.479 41.4028H134.702V42.8392H135.479C136.077 42.8392 136.375 42.5998 136.375 42.121Z" fill="#1AB4DB"/>
<path d="M138.825 42.6595V43.9763H138.527V43.6171C138.407 43.8566 138.108 43.9763 137.81 43.9763C137.331 43.9763 137.033 43.7369 137.033 43.3179C137.033 42.9588 137.272 42.7194 137.869 42.7194H138.586V42.6595C138.586 42.3004 138.407 42.061 137.989 42.061C137.69 42.061 137.451 42.1807 137.272 42.3004L137.152 42.061C137.391 41.8814 137.69 41.7617 138.049 41.7617C138.527 41.8216 138.825 42.1208 138.825 42.6595ZM138.586 43.3777V43.0186H137.929C137.511 43.0186 137.391 43.1982 137.391 43.3777C137.391 43.6171 137.571 43.7967 137.929 43.7967C138.288 43.7967 138.467 43.677 138.586 43.3777Z" fill="#1AB4DB"/>
<path d="M141.156 43.3784C141.156 43.7974 140.738 44.0368 140.2 44.0368C139.901 44.0368 139.542 43.9769 139.363 43.7974L139.483 43.558C139.662 43.7375 139.961 43.7974 140.2 43.7974C140.618 43.7974 140.917 43.6178 140.917 43.3784C140.917 43.139 140.678 43.0193 140.319 43.0193H139.901V42.7799H140.259C140.558 42.7799 140.797 42.6602 140.797 42.4208C140.797 42.1814 140.558 42.0617 140.2 42.0617C139.961 42.0617 139.722 42.1215 139.483 42.2412L139.423 42.0018C139.662 41.8821 139.961 41.8223 140.2 41.8223C140.678 41.8223 141.096 42.0617 141.096 42.4208C141.096 42.6602 140.917 42.8398 140.678 42.8996C140.977 42.9595 141.156 43.139 141.156 43.3784Z" fill="#1AB4DB"/>
<path d="M143.606 43.437C143.606 43.7961 143.307 44.0356 142.769 44.0356H141.753V41.8809H142.709C143.187 41.8809 143.486 42.0604 143.486 42.4195C143.486 42.6589 143.367 42.8385 143.128 42.8984C143.486 42.9582 143.606 43.1378 143.606 43.437ZM142.112 42.8385H142.769C143.128 42.8385 143.307 42.7188 143.307 42.4794C143.307 42.24 143.128 42.1203 142.769 42.1203H142.112V42.8385ZM143.367 43.437C143.367 43.1976 143.187 43.0779 142.829 43.0779H142.112V43.856H142.829C143.128 43.7961 143.367 43.6764 143.367 43.437Z" fill="#1AB4DB"/>
<path d="M144.323 41.8223H144.622V43.558L146.056 41.8223H146.295V43.977H145.996V42.2412L144.562 43.977H144.323V41.8223Z" fill="#1AB4DB"/>
<path d="M148.685 42.1203H147.848V44.0356H147.55V42.1203H146.713V41.8809H148.625L148.685 42.1203Z" fill="#1AB4DB"/>
<path d="M149.103 41.8223H149.402V43.558L150.836 41.8223H151.075V43.977H150.776V42.2412L149.342 43.977H149.103V41.8223Z" fill="#1AB4DB"/>
<path d="M153.824 43.0186H152.031C152.091 43.4974 152.39 43.7967 152.868 43.7967C153.107 43.7967 153.346 43.677 153.525 43.4974L153.704 43.677C153.525 43.9164 153.226 44.0361 152.868 44.0361C152.21 44.0361 151.732 43.5573 151.732 42.8989C151.732 42.2405 152.21 41.7617 152.808 41.7617C153.406 41.7617 153.884 42.2405 153.884 42.8989C153.824 42.9588 153.824 43.0186 153.824 43.0186ZM152.031 42.7792H153.585C153.525 42.3602 153.226 42.061 152.808 42.061C152.39 42.061 152.091 42.3602 152.031 42.7792Z" fill="#1AB4DB"/>
<path d="M155.497 42.8989C155.497 42.7193 155.616 42.5996 155.796 42.5996C155.975 42.5996 156.095 42.7193 156.095 42.8989C156.095 43.0784 155.975 43.1981 155.796 43.1981C155.616 43.1981 155.497 43.0784 155.497 42.8989Z" fill="#1AB4DB"/>
<path d="M160.636 43.737V44.6348H160.337V43.9764H157.827V44.6348H157.529V43.737H157.648C158.066 43.737 158.126 42.9589 158.186 42.0612L158.246 41.1035H160.218V43.737H160.636ZM158.126 43.737H159.919V41.3429H158.544V42.0612C158.425 42.8392 158.365 43.5575 158.126 43.737Z" fill="#1AB4DB"/>
<path d="M160.875 42.9595C160.875 42.3011 161.353 41.8223 161.95 41.8223C162.548 41.8223 163.026 42.3011 163.026 42.9595C163.026 43.6178 162.548 44.0967 161.95 44.0967C161.353 44.0967 160.875 43.558 160.875 42.9595ZM162.787 42.9595C162.787 42.4208 162.429 42.1215 162.01 42.1215C161.592 42.1215 161.174 42.4806 161.174 42.9595C161.174 43.4383 161.532 43.7974 162.01 43.7974C162.488 43.7974 162.787 43.4383 162.787 42.9595Z" fill="#1AB4DB"/>
<path d="M163.504 42.9595C163.504 42.3011 163.982 41.8223 164.639 41.8223C164.998 41.8223 165.297 41.942 165.476 42.2412L165.237 42.3609C165.117 42.1215 164.878 42.0617 164.58 42.0617C164.102 42.0617 163.743 42.4208 163.743 42.8996C163.743 43.3784 164.102 43.7375 164.58 43.7375C164.819 43.7375 165.058 43.6178 165.237 43.4383L165.476 43.558C165.297 43.8572 164.998 43.977 164.639 43.977C163.982 44.0368 163.504 43.6178 163.504 42.9595Z" fill="#1AB4DB"/>
<path d="M167.567 42.1203H166.731V44.0356H166.432V42.1203H165.596V41.8809H167.508L167.567 42.1203Z" fill="#1AB4DB"/>
<path d="M167.986 41.8223H168.284V43.558L169.719 41.8223H169.958V43.977H169.659V42.2412L168.225 43.977H167.986V41.8223Z" fill="#1AB4DB"/>
<path d="M172.706 43.0792H172.228V44.0368H171.93V43.0792H171.451L170.794 44.0368H170.436L171.212 42.8996L170.495 41.8223H170.794L171.451 42.7799H171.93V41.8223H172.228V42.7799H172.706L173.364 41.8223H173.662L172.945 42.8996L173.722 44.0368H173.364L172.706 43.0792Z" fill="#1AB4DB"/>
<path d="M176.053 43.0186H174.26C174.32 43.4974 174.618 43.7967 175.097 43.7967C175.336 43.7967 175.575 43.677 175.754 43.4974L175.933 43.677C175.754 43.9164 175.455 44.0361 175.097 44.0361C174.439 44.0361 173.961 43.5573 173.961 42.8989C173.961 42.2405 174.439 41.7617 175.037 41.7617C175.634 41.7617 176.112 42.2405 176.112 42.8989C176.053 42.9588 176.053 43.0186 176.053 43.0186ZM174.26 42.7792H175.814C175.754 42.3602 175.455 42.061 175.037 42.061C174.619 42.061 174.26 42.3602 174.26 42.7792Z" fill="#1AB4DB"/>
<path d="M176.71 41.8223H177.009V42.7799H178.383V41.8223H178.682V43.977H178.383V43.0193H177.009V43.977H176.71V41.8223Z" fill="#1AB4DB"/>
<path d="M179.459 41.8223H179.757V43.558L181.192 41.8223H181.431V43.977H181.132V42.2412L179.698 43.977H179.459V41.8223Z" fill="#1AB4DB"/>
<path d="M184 41.8223V43.977H183.761V43.2587H182.984L182.506 43.977H182.207L182.745 43.1989C182.387 43.139 182.207 42.8996 182.207 42.5405C182.207 42.0617 182.566 41.8223 183.163 41.8223H184ZM183.044 43.0792H183.701V42.1215H183.044C182.626 42.1215 182.387 42.2412 182.387 42.6003C182.387 42.9595 182.685 43.0792 183.044 43.0792Z" fill="#1AB4DB"/>
</g>
<defs>
<clipPath id="clip0_557_14416">
<rect width="184" height="70" fill="white"/>
</clipPath>
</defs>
</svg>
