<svg width="184" height="70" viewBox="0 0 184 70" fill="none" xmlns="http://www.w3.org/2000/svg">
<g clip-path="url(#clip0_261_4956)">
<path d="M17.203 52.9717C18.2252 53.5645 19.5702 53.2412 20.162 52.2712L25.273 43.8647C25.8648 42.8408 25.542 41.4936 24.5736 40.9009L20.5386 38.422C19.5164 37.8293 18.1714 38.1526 17.5796 39.1226L12.4687 47.5291C11.8769 48.5529 12.1997 49.9001 13.1681 50.4929L17.203 52.9717ZM15.7504 50.7084C15.5352 50.439 15.589 50.0079 15.858 49.7924C16.127 49.5768 16.5574 49.6307 16.7726 49.9001C16.9878 50.1696 16.934 50.6007 16.665 50.8162C16.396 51.0318 15.9656 50.9779 15.7504 50.7084ZM18.817 49.9001L15.1049 47.6368C14.7283 47.4213 14.6207 46.8824 14.8359 46.5052L18.7094 40.1464C18.9246 39.7692 19.4626 39.6614 19.8392 39.877L23.5514 42.1403C23.928 42.3558 24.0356 42.8947 23.8204 43.2719L19.9468 49.6307C19.6778 50.0079 19.1936 50.1696 18.817 49.9001Z" fill="#F2911A"/>
<path d="M47.9228 39.5533C47.869 39.6072 47.8152 39.715 47.8152 39.8766C47.8152 40.0383 47.9228 40.0922 48.0842 40.0922L55.2934 41.1161C55.67 41.17 55.9928 41.0622 56.2618 40.9005L56.5308 40.685L62.1797 36.6434C62.2873 36.5895 62.3411 36.4278 62.2873 36.32C62.2335 36.2123 62.1797 36.1045 62.0183 36.1045L54.863 35.0806C54.4864 35.0267 54.1098 35.1345 53.8408 35.3501L47.9228 39.5533Z" fill="#DD3A3B"/>
<path d="M63.0943 39.2839C63.1481 39.23 63.2019 39.1761 63.1481 39.0683C63.1481 39.0144 63.0405 38.9605 62.9867 38.9066L61.0499 38.6372C60.8885 38.6372 60.7271 38.6372 60.6195 38.745L56.4231 41.7088C56.1541 41.9244 55.7775 41.9783 55.4547 41.9244L50.3975 41.1699C50.2361 41.1699 50.0747 41.1699 49.9671 41.2777L48.6221 42.2477C48.5145 42.3016 48.4607 42.4632 48.5145 42.571C48.5683 42.6788 48.6221 42.7866 48.7835 42.7866L55.9927 43.8104C56.3693 43.8643 56.6921 43.7566 56.9611 43.5949L63.0943 39.2839Z" fill="#DD3A3B"/>
<path d="M63.4168 41.655L61.749 41.4395C61.5876 41.4395 61.4262 41.4395 61.3186 41.5472L57.1222 44.5111C56.8532 44.7266 56.4766 44.7805 56.1538 44.7266L51.0966 43.9722C50.9352 43.9722 50.7738 43.9722 50.6662 44.08L49.3212 45.0499C49.2136 45.1038 49.1598 45.2655 49.2136 45.3733C49.2674 45.481 49.3212 45.5888 49.4826 45.5888L56.6918 46.6127C57.0684 46.6666 57.3912 46.5588 57.6602 46.3971L63.5782 42.1939C63.6858 42.14 63.7396 41.9783 63.6858 41.8706C63.632 41.7628 63.5244 41.7089 63.4168 41.655Z" fill="#DD3A3B"/>
<path d="M16.019 17.2444L20.5381 14.6039C20.5919 14.55 20.6995 14.6039 20.7533 14.6578L20.8609 14.8733C20.9147 14.9272 20.8609 15.035 20.8071 15.0889L16.288 17.7294C16.2342 17.7832 16.1266 17.7294 16.0728 17.6755L15.9652 17.4599C15.9114 17.3521 15.9652 17.2983 16.019 17.2444Z" fill="#29B7C9"/>
<path d="M16.826 18.6452L21.3452 16.0047C21.399 15.9509 21.5066 16.0047 21.5604 16.0586L21.668 16.2742C21.7218 16.3281 21.6679 16.4358 21.6142 16.4897L17.095 19.1302C17.0412 19.1841 16.9336 19.1302 16.8798 19.0763L16.7722 18.8608C16.7184 18.753 16.7722 18.6991 16.826 18.6452Z" fill="#29B7C9"/>
<path d="M17.6868 20.0998L22.206 17.4593C22.2598 17.4054 22.3674 17.4593 22.4212 17.5132L22.5288 17.7827C22.5826 17.8365 22.5288 17.9443 22.475 17.9982L17.9558 20.6387C17.902 20.6926 17.7944 20.6387 17.7406 20.5848L17.633 20.3693C17.5792 20.2615 17.633 20.1537 17.6868 20.0998Z" fill="#29B7C9"/>
<path d="M22.2595 11.0466L21.8829 10.3999L20.9145 10.9927L20.6455 11.1543L19.9999 11.5315L15.1041 14.3876C13.9743 15.0343 13.5977 16.4892 14.2433 17.6209L17.0947 22.5247C16.3415 23.0635 16.0725 24.1413 16.5567 24.9496L16.6105 25.0035C17.1485 25.8657 18.2783 26.189 19.1391 25.6502L25.2723 22.0936C25.2723 22.0936 25.3261 22.0397 25.3799 22.0397C25.3799 22.0397 25.4337 21.9858 25.4875 21.9858C26.2407 21.4469 26.4559 20.3692 25.9717 19.5608L25.3261 18.4831L25.0033 17.8903L21.9905 12.771V12.7171C21.9905 12.7171 21.6677 12.2321 21.7753 11.6932C21.8291 11.4777 21.9905 11.2082 22.2595 11.0466ZM23.7659 22.1474L18.7625 25.0574C18.2245 25.3807 17.5251 25.1652 17.2023 24.6263L17.1485 24.5724C16.8257 24.0335 17.0409 23.333 17.5789 23.0097L22.5823 20.0997C22.5285 20.5308 22.5823 20.9619 22.7975 21.3391C23.0127 21.7163 23.3893 22.0397 23.7659 22.1474ZM25.3261 19.938C25.5951 20.4769 25.4875 21.1236 25.0033 21.4469C24.4653 21.7163 23.7659 21.5008 23.4431 20.9619C23.1203 20.423 23.3355 19.6686 23.8735 19.3453L24.6805 18.8603L25.3261 19.938ZM21.3987 13.1482L24.3577 18.2675L17.6865 22.1474L14.8351 17.2437C14.3509 16.4353 14.6199 15.4115 15.4269 14.9804L20.3227 12.1243L20.9683 11.7471H21.0221C20.9145 12.4476 21.2911 13.0404 21.3987 13.1482Z" fill="#1CB4DB"/>
<path d="M58.1987 23.8184C58.1987 23.7107 58.3063 23.6568 58.3601 23.6029C58.4139 23.549 58.5753 23.6029 58.6291 23.6568L59.5975 24.6806C59.6513 24.7345 59.7589 24.7884 59.8127 24.7884L61.2115 24.5729C61.3191 24.5729 61.4267 24.5729 61.4805 24.6806C61.5343 24.7884 61.5343 24.8423 61.4805 24.9501L60.7273 26.2973L61.4267 27.6984C61.4805 27.8061 61.4805 27.9139 61.4267 27.9678C61.3729 28.0756 61.2653 28.0756 61.1577 28.0756L59.7589 27.8061C59.6513 27.8061 59.5975 27.8061 59.5437 27.86L58.5215 28.8839C58.4677 28.9378 58.3601 28.9917 58.2525 28.9378C58.1449 28.8839 58.0911 28.83 58.0911 28.7222L57.9297 27.3211C57.9297 27.2134 57.8759 27.1595 57.7683 27.1056L56.5309 26.4589C56.4233 26.4051 56.3695 26.3512 56.3695 26.2434C56.3695 26.1356 56.4233 26.0817 56.5309 26.0278L57.8221 25.4351C57.9297 25.3812 57.9297 25.3273 57.9835 25.2195L58.1987 23.8184Z" fill="#49B2AF"/>
<path d="M51.9035 19.9921C51.2579 19.076 51.5269 17.8366 52.4415 17.1899C53.3561 16.5972 54.5935 16.8127 55.2391 17.7288C55.8847 18.6449 55.6157 19.8843 54.7011 20.531C53.7865 21.1776 52.5491 20.9082 51.9035 19.9921Z" fill="#F6C418"/>
<path d="M44.1567 45.2119C43.8339 44.7269 43.9953 44.1342 44.4257 43.8108C44.9099 43.4875 45.5017 43.6492 45.8245 44.0803C46.1473 44.5653 45.9859 45.158 45.5555 45.4814C45.0713 45.8047 44.4795 45.6969 44.1567 45.2119Z" fill="#F6C418"/>
<path d="M11.8767 17.2443H10.8545V16.1665H9.67088V17.2443H8.64868V18.322H9.67088V19.5075H10.8545V18.322H11.8767V17.2443Z" fill="#F7C512"/>
<path d="M26.5641 51.032H25.4881V49.9004H24.3045V51.032H23.2823V52.1098H24.3045V53.2414H25.4881V52.1098H26.5641V51.032Z" fill="#DD3A3B"/>
<path d="M22.7977 32.9251H21.7755V31.7935H20.5919V32.8712H19.5697L19.5159 33.949L20.5919 34.0029L20.5381 35.1345H21.7217L21.7755 34.0029H22.7977V32.9251Z" fill="#58C0EE"/>
<path d="M68.4738 40.0387H67.3978V38.9609H66.2142V40.0387H65.192V41.1703H66.2142V42.302H67.3978V41.1703H68.4738V40.0387Z" fill="#E1396B"/>
<path d="M78.1579 20.8009H77.0819V19.7231H75.8983V20.8009H74.8761V21.9325H75.8983V23.0642H77.0819V21.9325H78.1579V20.8009Z" fill="#BD75AE"/>
<path d="M58.0367 2.37121H56.9607V1.29346H55.7771V2.37121H54.7549V3.44897H55.7771V4.6345H56.9607V3.44897H58.0367V2.37121Z" fill="#46B4AB"/>
<path d="M67.129 5.06555H66.053V3.98779H64.9232V5.06555H63.8472V6.19719H64.9232V7.32884H66.053V6.19719H67.129V5.06555Z" fill="#DD3A3B"/>
<path d="M51.7426 50.1695H50.5052V48.8223H49.0526V50.1695H47.8152V51.4628H49.0526V52.8639H50.5052V51.4628H51.7426V50.1695Z" fill="#58BDED"/>
<path d="M26.1869 11.8557C26.5635 12.5024 26.0793 13.2568 25.3799 13.2568C24.6267 13.2568 24.1963 12.4485 24.5729 11.8557C24.8957 11.2629 25.8103 11.2629 26.1869 11.8557Z" fill="#F7C512"/>
<path d="M62.9863 48.7686L64.2237 49.5769L65.5687 48.9841L65.1921 50.4391L66.1605 51.5707L64.6541 51.6785L63.9009 52.9179L63.3629 51.5168L61.9103 51.1935L63.0939 50.2235L62.9863 48.7686Z" fill="#F7C512"/>
<path d="M17.7405 28.3985C17.8481 28.4524 17.9019 28.5602 17.9019 28.7218C17.9019 28.8835 17.8481 28.9913 17.7405 29.0451L16.7183 29.6379L15.6961 30.1768C15.5885 30.2307 15.4271 30.2307 15.3195 30.1768C15.2119 30.1229 15.1581 30.0151 15.1581 29.8535V27.4824C15.1581 27.3746 15.2119 27.213 15.3195 27.1591C15.4271 27.1052 15.5885 27.1052 15.6961 27.1591L16.7183 27.7518L17.7405 28.3985Z" fill="#F7C512"/>
<path d="M74.876 39.5535C74.4456 39.1224 74.3918 38.4218 74.876 37.9368L77.566 35.1886C77.9964 34.7575 78.6958 34.7575 79.18 35.1886C79.6104 35.6197 79.6642 36.3202 79.18 36.8052L76.49 39.5535C76.0596 39.9846 75.3602 39.9846 74.876 39.5535Z" fill="#58BDED"/>
<path d="M67.0751 26.1359C66.9675 26.082 66.8061 26.1359 66.7523 26.2437L66.6985 26.2975C66.5909 26.4053 66.5909 26.6209 66.6985 26.7287L71.3252 31.2552C71.917 30.878 72.7778 30.9319 73.3158 31.4708C73.9614 32.0635 73.9614 33.0874 73.4234 33.7341C73.3696 33.788 73.3696 33.788 73.3158 33.8418C73.262 33.8957 73.262 33.9496 73.2082 33.9496C72.6164 34.5424 71.5942 34.5424 70.9486 33.8957C70.4106 33.3569 70.303 32.5485 70.6796 31.9019L65.9991 27.3753C65.8915 27.2675 65.6763 27.2675 65.5687 27.3753C65.4611 27.4831 65.4611 27.6447 65.4611 27.7525L68.689 36.644C68.8504 37.129 69.2808 37.4523 69.8188 37.5062L73.7462 37.8295L77.297 34.1652L76.8666 30.2314C76.8128 29.7464 76.4362 29.3153 76.0058 29.1536L67.0751 26.1359ZM69.9802 34.9735L70.1954 35.6201C70.2492 35.7818 70.4106 35.9435 70.6258 35.9435L71.648 36.0512C71.917 36.1051 72.0784 36.3207 72.0784 36.5362C72.0784 36.5901 72.0784 36.644 72.0246 36.644C71.9708 36.8057 71.7556 36.9673 71.5404 36.9135L70.303 36.8057C69.9264 36.7518 69.6036 36.5362 69.496 36.159L69.1194 35.1352C69.0656 34.8657 69.227 34.6502 69.4422 34.5963C69.6574 34.5424 69.9264 34.7041 69.9802 34.9735Z" fill="#1CB4DB"/>
<path d="M14.8354 38.0451C14.8892 38.1528 14.8892 38.3145 14.7816 38.4223C14.674 38.5301 14.5664 38.5839 14.4588 38.5839L13.2752 38.4762L12.0916 38.3684C11.984 38.3684 11.8764 38.2606 11.8226 38.1528C11.7688 38.0451 11.7688 37.8295 11.8226 37.7217L12.522 36.7518L13.2214 35.7818C13.2752 35.674 13.4366 35.6201 13.5442 35.6201C13.6518 35.6201 13.7594 35.7279 13.8132 35.8357L14.2974 36.9134L14.8354 38.0451Z" fill="#BD75AE"/>
<path d="M78.2655 43.7574C78.3731 43.8113 78.4269 43.9729 78.4269 44.0807C78.4269 44.1885 78.3731 44.2963 78.2117 44.404L77.1357 44.9429L76.0597 45.4818C75.9521 45.5357 75.7907 45.5357 75.6831 45.4818C75.5755 45.4279 75.5217 45.2662 75.5217 45.1585L75.5755 43.9729L75.6293 42.7874C75.6293 42.6796 75.6831 42.5719 75.8445 42.4641C76.0059 42.3563 76.1135 42.4102 76.2211 42.4641L77.2433 43.1107L78.2655 43.7574Z" fill="#F7C512"/>
<path d="M6.29159 27.8291C6.54534 27.7446 6.67503 27.4471 6.58126 27.1647C6.48748 26.8823 6.20576 26.7219 5.95201 26.8064C5.69826 26.8909 5.56857 27.1884 5.66235 27.4708C5.75612 27.7532 6.03784 27.9136 6.29159 27.8291Z" fill="#DD3A3B"/>
<path d="M12.2532 25.112C12.038 24.5731 11.4462 23.9265 9.67077 23.9265C9.50937 23.9265 9.29417 23.9265 9.07897 23.9265C9.07897 23.7109 9.07897 23.4953 9.02517 23.3337C8.86377 21.4476 8.21818 20.8548 7.73398 20.6932C7.24978 20.5315 6.38898 20.6932 5.42058 22.202C5.20539 22.5254 4.99019 22.9026 4.82879 23.2798C4.45219 23.0642 4.07559 22.9026 3.69899 22.7409C1.97739 22.0943 1.2242 22.4715 0.901397 22.9026C0.578598 23.3337 0.417199 24.1959 1.4394 25.8125C1.547 26.0281 1.7084 26.2436 1.86979 26.4053C1.6546 26.567 1.4932 26.6747 1.3318 26.8364C-0.0669997 28.0219 -0.1208 28.8841 0.0943998 29.423C0.309599 29.9619 0.901397 30.6085 2.67679 30.6085C2.89199 30.6085 3.05339 30.6085 3.26859 30.6085C3.26859 30.8241 3.26859 31.0396 3.32239 31.2013C3.48379 33.0874 4.12939 33.6801 4.61359 33.8418C4.82879 33.8957 5.04399 33.9496 5.36679 33.8418C5.79718 33.6801 6.33518 33.3029 6.92698 32.333C7.14218 32.0096 7.35738 31.6324 7.51878 31.2552C7.89538 31.4707 8.27198 31.6324 8.64858 31.7941C9.67077 32.1713 10.3702 32.1713 10.8006 32.0635C11.0696 31.9557 11.2848 31.7941 11.3924 31.6324C11.7152 31.2013 11.8766 30.3391 10.8544 28.7225C10.7468 28.5069 10.5854 28.2914 10.424 28.1297C10.6392 27.968 10.8006 27.8603 10.962 27.6986C12.3608 26.5131 12.4146 25.6509 12.2532 25.112ZM6.01238 22.687C6.44278 22.0404 6.87318 21.6093 7.19598 21.5015C7.30358 21.4476 7.41118 21.4476 7.51878 21.5015C7.94918 21.6093 8.27198 22.5793 8.27198 24.0342C7.68018 24.0881 7.08838 24.2498 6.44278 24.4114C6.11998 24.142 5.74338 23.9264 5.42058 23.7648C5.63578 23.3337 5.85098 23.0104 6.01238 22.687ZM4.02179 28.8841C4.23699 29.0458 4.39839 29.2075 4.61359 29.3691L4.88259 29.5847C4.55979 29.6386 4.23699 29.6924 3.91419 29.7463C3.96799 29.4769 3.96799 29.2075 4.02179 28.8841ZM2.94579 26.7286C3.16099 26.567 3.42999 26.4592 3.69899 26.2975L3.64519 26.567C3.59139 26.8364 3.53759 27.0519 3.48379 27.3214C3.32239 27.1058 3.10719 26.8903 2.94579 26.7286ZM4.12939 27.968C4.18319 27.5908 4.29079 27.2136 4.39839 26.7825C4.45219 26.4592 4.55979 26.1897 4.66739 25.8664C4.93639 25.7586 5.20539 25.6509 5.52818 25.5431C5.85098 25.4353 6.11998 25.3275 6.44278 25.2736C6.71178 25.4892 6.98078 25.6509 7.19598 25.8664C7.51878 26.1359 7.84158 26.4053 8.11058 26.6747C8.05678 27.0519 7.94918 27.4292 7.84158 27.8603C7.78778 28.1836 7.68018 28.453 7.57258 28.7764C7.30358 28.8841 7.03458 28.9919 6.71178 29.0997C6.38898 29.2075 6.11998 29.3152 5.79718 29.3691C5.52818 29.1536 5.25919 28.9919 5.04399 28.7764C4.72119 28.5069 4.45219 28.2375 4.12939 27.968ZM8.54098 28.0758C8.59478 27.8064 8.64857 27.5908 8.70237 27.3214C8.91757 27.5369 9.07897 27.6986 9.24037 27.9142C9.02517 28.0758 8.75618 28.1836 8.48718 28.3453C8.48718 28.2375 8.54098 28.1297 8.54098 28.0758ZM8.21818 25.7586C8.00298 25.597 7.84158 25.4353 7.62638 25.2736L7.35738 25.0581C7.68018 25.0042 8.00298 24.9503 8.32578 24.8964C8.27198 25.112 8.21818 25.4353 8.21818 25.7586ZM5.15159 24.4114C5.25918 24.5192 5.42058 24.5731 5.52818 24.6809C5.42058 24.7348 5.31298 24.7348 5.20539 24.7887C5.15159 24.7887 5.04399 24.8425 4.99019 24.8964C5.04399 24.7348 5.09779 24.5731 5.15159 24.4114ZM1.4932 23.4953C1.547 23.4415 1.6008 23.3876 1.7084 23.3337C2.03119 23.2259 2.67679 23.2798 3.37619 23.5492C3.69899 23.657 4.07559 23.8187 4.45219 24.0342C4.29079 24.4114 4.12939 24.8425 4.02179 25.2736C3.42999 25.5431 2.94579 25.8125 2.46159 26.082C1.4932 24.8425 1.2242 23.8726 1.4932 23.4953ZM0.686198 29.2075C0.524799 28.7764 1.0628 27.968 2.30019 27.1058C2.62299 27.483 2.94579 27.8603 3.32239 28.1836C3.21479 28.7225 3.16099 29.2613 3.16099 29.8002C1.7622 29.9619 0.847598 29.6386 0.686198 29.2075ZM6.17378 31.9019C5.63578 32.7641 5.04399 33.249 4.66739 33.1413C4.23699 33.0335 3.91419 32.0635 3.91419 30.6085C4.50599 30.5547 5.09779 30.393 5.68958 30.2313C6.01238 30.5008 6.38898 30.7163 6.71178 30.878C6.55038 31.2552 6.38898 31.6324 6.17378 31.9019ZM7.08838 30.1774C6.98078 30.0697 6.81938 30.0158 6.71178 29.908C6.81938 29.8541 6.92698 29.8541 7.03458 29.8002C7.08838 29.8002 7.19598 29.7463 7.24978 29.6924C7.19598 29.908 7.14218 30.0697 7.08838 30.1774ZM10.7468 31.1474C10.5316 31.4707 9.77837 31.4169 8.80997 31.0935C8.48718 30.9858 8.11058 30.8241 7.73398 30.6085C7.89538 30.2313 8.05678 29.8002 8.16438 29.3691C8.70237 29.0997 9.24037 28.8302 9.72457 28.5608C10.693 29.8002 11.0158 30.7702 10.7468 31.1474ZM9.88597 27.483C9.56317 27.1058 9.24037 26.7286 8.86378 26.4053C8.97137 25.8664 9.02517 25.3275 9.02517 24.7887C10.424 24.6809 11.3386 25.0042 11.5 25.4353C11.6614 25.8125 11.1234 26.6747 9.88597 27.483Z" fill="#DD3A3B"/>
<path d="M38.0233 10.5081L39.3683 10.1309L38.2923 8.78369L38.0233 10.5081Z" fill="#8263A7"/>
<path d="M40.2288 3.61084C38.1844 4.04194 36.0862 4.79637 34.6874 6.898L37.485 17.0289C38.6686 14.8734 40.5516 14.0651 42.9726 13.5262C43.0264 13.5262 43.0802 13.4723 43.134 13.4184C43.1878 13.3645 43.1878 13.3106 43.1878 13.2029L40.5516 3.82639C40.4978 3.66473 40.3364 3.61084 40.2288 3.61084ZM40.713 11.4785C40.6054 11.5862 40.444 11.5324 40.3364 11.4246L39.6908 10.6163L37.9154 11.1012L37.754 12.1251C37.754 12.2868 37.5926 12.3946 37.4312 12.3407C37.2698 12.3407 37.1622 12.179 37.216 12.0712L37.3774 10.8857L37.754 8.13742C37.754 7.97575 37.9154 7.86798 38.0768 7.92187C38.1306 7.92187 38.1844 7.97575 38.2382 8.02964L39.9598 10.1852L40.713 11.1551C40.8744 11.209 40.8744 11.3707 40.713 11.4785ZM32.6968 10.9396L31.6208 11.2629C31.7822 11.4785 32.0512 11.694 32.374 11.9635C32.5354 11.6401 32.643 11.2629 32.6968 10.9396Z" fill="#8263A7"/>
<path d="M27.6938 7.05912C27.5862 7.11301 27.4786 7.22079 27.5324 7.38245L30.1148 16.8128C30.1148 16.8667 30.1686 16.9206 30.2224 16.9745C30.2762 17.0284 30.3838 17.0284 30.4376 16.9745C32.751 16.1662 34.7954 15.8967 36.8935 17.19L34.096 7.05912C31.8902 5.92748 29.6844 6.35858 27.6938 7.05912ZM31.7826 10.6696L31.6212 10.1846C31.5674 10.023 31.675 9.91518 31.8364 9.86129C31.9978 9.8074 32.1054 9.91518 32.1592 10.023L32.3206 10.5079L33.8808 10.0768C34.0422 10.023 34.1498 10.1307 34.2036 10.2385C34.2574 10.3463 34.1498 10.5079 33.9884 10.5618L33.289 10.7774C33.2352 11.0468 33.1276 11.6396 32.8586 12.2324C33.2352 12.4479 33.6656 12.5557 34.1498 12.5557C34.3112 12.5557 34.4188 12.6635 34.4188 12.8251C34.4188 12.9868 34.3112 13.0946 34.1498 13.0946C33.558 13.1484 33.02 12.9868 32.5896 12.7173C32.3206 13.1484 31.944 13.5796 31.406 13.849H31.3522C31.2446 13.9029 31.0832 13.849 31.0294 13.7412C30.9756 13.6334 31.0294 13.4718 31.137 13.4179C31.5674 13.2023 31.8902 12.879 32.1054 12.5018C31.5674 12.1246 31.1908 11.6935 31.0294 11.4779L30.33 11.6935C30.1686 11.7474 30.061 11.6396 30.0072 11.5318C29.9534 11.424 30.061 11.2624 30.2224 11.2085L31.7826 10.6696Z" fill="#8263A7"/>
<path d="M70.895 20.6394L69.7114 16.0589L71.164 10.724C71.2178 10.5085 71.1102 10.2929 70.895 10.239L67.7746 9.43072C67.5594 9.37684 67.3442 9.48461 67.2904 9.70016L65.8378 15.0351L62.5022 18.43C62.1256 18.8611 61.9642 19.2922 62.0718 19.7233C62.1794 20.1544 62.556 20.4777 63.094 20.6394L69.281 22.3099C69.819 22.4716 70.3032 22.3638 70.626 22.0405C70.9488 21.7171 71.0026 21.1783 70.895 20.6394ZM64.977 16.975L66.2682 15.6817L66.8062 15.8434C67.0214 15.8973 67.2366 15.7895 67.2904 15.5739C67.3442 15.3584 67.2366 15.1428 67.0214 15.0889L66.6448 14.9812L66.86 14.2267L67.2366 14.3345C67.4518 14.3884 67.667 14.2806 67.7208 14.0651C67.7746 13.8495 67.667 13.634 67.4518 13.5801L67.0752 13.4723L67.2904 12.7179L67.667 12.8257C67.8822 12.8795 68.0974 12.7718 68.1512 12.5562C68.205 12.3407 68.0974 12.1251 67.8822 12.0712L67.5056 11.9635L67.936 10.4007L70.2494 11.0474L68.9044 16.1128C68.9044 16.1667 68.9044 16.2745 68.9044 16.3284L69.4424 18.3222L64.977 16.975Z" fill="#F2911A"/>
<path d="M36.1399 31.9012C37.8077 31.9012 39.0989 30.554 39.0989 28.9374C39.0989 27.3207 37.7539 25.9735 36.1399 25.9735C34.5259 25.9735 33.1809 27.3207 33.1809 28.9374C33.1809 30.554 34.5259 31.9012 36.1399 31.9012ZM39.7445 41.601C40.0135 38.8527 49.805 32.3323 51.0424 21.9858C49.4823 27.9135 38.7223 34.1645 35.6557 33.5717C32.4815 32.979 28.3927 29.0451 27.7471 24.0875C26.8863 35.0806 33.1809 53.1869 51.7956 63.8028C43.7795 58.0907 39.3679 45.5348 39.7445 41.601ZM33.1809 46.9898C32.6429 53.9952 33.6113 61.8628 37.0007 69.9999C35.2791 64.5572 36.0323 57.9829 37.4311 52.9174C35.8709 51.0314 34.4721 49.0914 33.1809 46.9898Z" fill="#1CB4DB"/>
<path d="M38.8301 20.2619C38.7763 20.208 38.7763 20.208 38.7225 20.208C38.6687 20.208 38.6149 20.208 38.6149 20.2619L37.539 21.663C37.4314 21.8246 37.4314 22.0402 37.539 22.2557L38.9377 24.2496C39.0453 24.3574 39.1529 24.4651 39.3143 24.519L41.5201 25.2196C41.7891 25.3273 42.1119 25.2196 42.2733 24.9501L43.1879 23.7646C43.2417 23.7107 43.2417 23.6568 43.1879 23.6568C43.1341 23.6568 43.1341 23.5491 43.0803 23.5491L40.6593 22.7946C40.4441 22.7407 40.2827 22.633 40.1751 22.4174L38.8301 20.2619Z" fill="#F2911A"/>
<path d="M43.1884 25.1117C43.1346 25.1656 43.1346 25.2195 43.1346 25.2733C43.1346 25.3272 43.1884 25.3811 43.2422 25.435L43.4574 25.5967C43.5112 25.6506 43.565 25.6506 43.6188 25.6506C43.6726 25.6506 43.7264 25.5967 43.7802 25.5428L44.2106 24.6267L43.9416 24.4111L43.1884 25.1117Z" fill="#F2911A"/>
<path d="M44.9635 23.5491L45.2325 23.6569C45.2863 23.6569 45.3401 23.6569 45.3401 23.603C45.3401 23.5491 45.3939 23.5491 45.3401 23.4952L42.9191 19.6153C42.8115 19.4536 42.7039 19.3458 42.5425 19.2919L38.8303 18.1603C38.6689 18.1064 38.5075 18.1603 38.4537 18.2681C38.3461 18.3759 38.3461 18.5375 38.4537 18.6992L40.5519 22.0402C40.6057 22.148 40.7133 22.2019 40.8209 22.2558L44.6407 23.4413L44.2103 23.9802L43.9413 23.8185L43.7799 24.0341L44.4793 24.573L44.6407 24.3574L44.4255 24.1957L44.9635 23.5491Z" fill="#F2911A"/>
<path d="M52.7647 5.44267C53.1413 5.98155 53.4103 6.41265 53.7331 6.95153C53.3027 7.16708 52.8723 7.38263 52.4957 7.54429C52.2267 7.65207 52.0653 7.86762 52.3343 8.08317C52.4419 8.19094 52.7647 8.24483 52.9261 8.19094C53.2489 8.08317 53.5717 7.92151 53.8407 7.75984C54.0559 7.65207 54.2173 7.65207 54.3787 7.86762C54.5939 8.24483 54.8629 8.56816 55.1319 8.99926C54.7553 9.16093 54.4863 9.32259 54.1635 9.43036C53.8407 9.53814 53.7331 9.75369 53.8945 10.077C54.1097 10.4003 54.3787 10.2387 54.5939 10.1309C54.9167 10.0231 55.1857 9.80758 55.5085 9.64592C55.7775 10.077 56.1003 10.562 56.4231 11.1009C56.0465 11.2625 55.6161 11.4242 55.2395 11.6398C55.0781 11.7475 54.9167 12.017 54.9705 12.1786C55.0781 12.4481 55.4009 12.4481 55.6699 12.2864C56.0465 12.0709 56.4231 11.8553 56.8535 11.6398C57.3915 12.502 57.9295 13.3642 58.4675 14.2264C58.6289 14.4958 58.3599 14.8191 58.0371 14.7653C57.9295 14.7653 57.7681 14.7114 57.6605 14.6575C53.9483 13.6336 50.2361 12.6636 46.4702 11.6398C45.7708 11.4242 45.717 11.4242 45.8784 10.7776C46.7392 7.32874 47.6538 3.93381 48.6222 0.538878C48.676 0.323327 48.8912 0.215551 48.9988 0C49.1602 0.161663 49.4291 0.269439 49.5367 0.431102C50.0209 1.18553 50.5051 1.93996 51.0969 2.80217C50.6127 3.01772 50.1823 3.17938 49.7519 3.39493C49.6443 3.44882 49.5905 3.66437 49.5367 3.77215C49.7519 3.82603 50.021 4.04158 50.1824 3.9877C50.6127 3.82603 51.0431 3.55659 51.4197 3.34104C51.7425 3.82603 52.0653 4.31102 52.3343 4.79601C52.1191 4.90379 51.7425 5.06545 51.4735 5.22712C51.3121 5.33489 51.1507 5.60433 51.2045 5.71211C51.3121 6.03543 51.6349 5.98154 51.9039 5.87377C52.1729 5.81988 52.4419 5.60433 52.7647 5.44267ZM50.8279 10.3465C51.3659 10.5081 51.9039 10.6698 52.3881 10.7776C52.5495 10.8314 52.8185 10.7776 52.9261 10.6698C52.9799 10.6159 52.9261 10.3465 52.8723 10.2387C52.0653 8.99926 51.2583 7.70596 50.4513 6.46654C50.3437 6.35876 50.1285 6.14321 50.0209 6.1971C49.8595 6.25098 49.6982 6.41265 49.6444 6.52042C49.3754 7.43652 49.1064 8.4065 48.8912 9.32259C48.7836 9.64592 48.945 9.86147 49.3216 9.96924C49.8058 10.077 50.3437 10.2387 50.8279 10.3465Z" fill="#1CB4DB"/>
<path d="M89.7069 34.7607V26.501C89.7069 26.0821 89.8264 25.723 90.0057 25.5434C90.1849 25.304 90.4837 25.2441 90.7825 25.2441C91.0813 25.2441 91.38 25.3638 91.5593 25.5434C91.7386 25.7828 91.8581 26.0821 91.8581 26.501V34.7607C91.8581 35.1797 91.7386 35.5388 91.5593 35.7183C91.38 35.9577 91.0813 36.0176 90.7825 36.0176C90.4837 36.0176 90.2447 35.8979 90.0057 35.7183C89.8264 35.5388 89.7069 35.2395 89.7069 34.7607Z" fill="#1596B7"/>
<path d="M95.5031 25.3638H98.2519C98.9689 25.3638 99.5665 25.4236 100.104 25.5433C100.642 25.663 101.06 25.9024 101.479 26.3214C102.554 27.279 103.092 28.6557 103.092 30.5709C103.092 31.2293 103.032 31.768 102.913 32.3067C102.793 32.8453 102.614 33.3242 102.375 33.7431C102.136 34.1621 101.837 34.5212 101.479 34.8803C101.18 35.1197 100.881 35.3591 100.523 35.4788C100.164 35.6584 99.8055 35.7182 99.447 35.7781C99.0884 35.838 98.6104 35.8978 98.1324 35.8978H95.5629C95.2044 35.8978 94.9056 35.8379 94.6666 35.7182C94.4873 35.5985 94.3678 35.419 94.308 35.2394C94.2483 35 94.2483 34.7606 94.2483 34.4015V26.6805C94.2483 26.2017 94.3678 25.9024 94.5471 25.663C94.7263 25.4835 95.0849 25.4236 95.5031 25.3638ZM96.3397 27.0995V34.2219H97.9531C98.3116 34.2219 98.6104 34.2219 98.7897 34.2219C98.9689 34.2219 99.2079 34.1621 99.3872 34.1022C99.6262 34.0424 99.8055 33.9227 99.925 33.803C100.642 33.2044 101.001 32.187 101.001 30.6906C101.001 29.6731 100.821 28.8951 100.523 28.3564C100.224 27.8177 99.8055 27.5185 99.3872 27.3988C98.9092 27.279 98.3714 27.1593 97.7141 27.1593C97.7738 27.0995 96.3397 27.0995 96.3397 27.0995Z" fill="#1596B7"/>
<path d="M108.589 34.3416L106.916 27.6382V34.8803C106.916 35.2993 106.856 35.5985 106.677 35.7781C106.498 35.9577 106.259 36.0774 105.96 36.0774C105.661 36.0774 105.422 35.9577 105.243 35.7781C105.064 35.5985 104.944 35.2993 104.944 34.8803V26.5608C104.944 26.082 105.064 25.7827 105.303 25.6032C105.542 25.4236 105.841 25.3638 106.259 25.3638H106.916C107.335 25.3638 107.574 25.4236 107.753 25.4835C107.932 25.5433 108.052 25.663 108.171 25.8426C108.231 26.0221 108.35 26.3214 108.47 26.7404L110.023 32.4862L111.577 26.7404C111.697 26.3214 111.756 26.0221 111.876 25.8426C111.995 25.663 112.115 25.5433 112.294 25.4835C112.473 25.4236 112.772 25.3638 113.131 25.3638H113.788C114.206 25.3638 114.505 25.4236 114.744 25.6032C114.983 25.7827 115.103 26.082 115.103 26.5608V34.8803C115.103 35.2993 115.043 35.5985 114.864 35.7781C114.684 35.9577 114.445 36.0774 114.147 36.0774C113.848 36.0774 113.609 35.9577 113.43 35.7781C113.25 35.5985 113.131 35.2993 113.131 34.8803V27.6382L111.458 34.3416C111.338 34.7606 111.278 35.1197 111.219 35.2993C111.159 35.4788 111.039 35.6584 110.86 35.838C110.681 36.0175 110.442 36.0774 110.083 36.0774C109.844 36.0774 109.605 36.0175 109.426 35.8978C109.247 35.7781 109.127 35.6584 109.008 35.4788C108.888 35.2993 108.828 35.1197 108.769 34.9402C108.709 34.7606 108.649 34.5212 108.589 34.3416Z" fill="#1596B7"/>
<path d="M128.906 32.7256C128.906 33.384 128.727 33.9227 128.428 34.4614C128.129 35 127.591 35.3591 126.994 35.6584C126.337 35.9577 125.62 36.0774 124.783 36.0774C123.767 36.0774 122.871 35.8978 122.214 35.4788C121.736 35.1796 121.317 34.8205 121.078 34.3416C120.779 33.8628 120.66 33.384 120.66 32.965C120.66 32.7256 120.72 32.4862 120.899 32.3067C121.078 32.1271 121.317 32.0074 121.556 32.0074C121.795 32.0074 121.975 32.0673 122.154 32.2468C122.333 32.4264 122.453 32.6059 122.572 32.9052C122.692 33.2643 122.871 33.5037 122.99 33.7431C123.17 33.9825 123.349 34.1621 123.648 34.2818C123.946 34.4015 124.305 34.5212 124.783 34.5212C125.44 34.5212 125.918 34.4015 126.337 34.1022C126.755 33.803 126.934 33.4439 126.934 33.0249C126.934 32.6658 126.815 32.3665 126.635 32.187C126.396 31.9475 126.157 31.8278 125.799 31.7081C125.44 31.5884 125.022 31.4687 124.424 31.349C123.648 31.1695 123.05 30.9899 122.512 30.7505C121.975 30.5111 121.616 30.2118 121.317 29.7929C121.018 29.3739 120.899 28.8951 120.899 28.2965C120.899 27.698 121.078 27.2192 121.377 26.7404C121.676 26.2615 122.154 25.9623 122.751 25.7229C123.349 25.4835 124.066 25.3638 124.843 25.3638C125.5 25.3638 126.038 25.4236 126.516 25.6032C126.994 25.7827 127.352 25.9623 127.711 26.2616C128.01 26.501 128.249 26.8002 128.368 27.0995C128.488 27.3988 128.607 27.698 128.607 27.9374C128.607 28.1768 128.548 28.4162 128.368 28.5958C128.189 28.7754 127.95 28.8951 127.711 28.8951C127.472 28.8951 127.293 28.8352 127.173 28.7155C127.054 28.5958 126.934 28.4162 126.755 28.117C126.576 27.698 126.337 27.3988 126.038 27.1593C125.799 26.9199 125.321 26.8002 124.723 26.8002C124.185 26.8002 123.707 26.9199 123.409 27.1593C123.05 27.3988 122.931 27.698 122.931 28.0571C122.931 28.2367 122.99 28.4761 123.11 28.5958C123.229 28.7754 123.409 28.8951 123.588 29.0148C123.767 29.1345 124.006 29.1943 124.185 29.2542C124.365 29.314 124.723 29.4337 125.201 29.5534C125.799 29.6732 126.337 29.8527 126.815 30.0323C127.293 30.2118 127.711 30.3914 128.01 30.6308C128.368 30.8702 128.607 31.1695 128.787 31.5286C128.846 31.768 128.906 32.1869 128.906 32.7256Z" fill="#1596B7"/>
<path d="M139.662 32.6058C139.662 32.9649 139.602 33.324 139.423 33.6831C139.244 34.1021 139.005 34.4612 138.646 34.8203C138.287 35.1794 137.869 35.4787 137.272 35.7181C136.734 35.9575 136.077 36.0772 135.359 36.0772C134.822 36.0772 134.284 36.0174 133.866 35.8977C133.447 35.778 132.969 35.6583 132.611 35.4189C132.252 35.1794 131.894 34.8802 131.595 34.5211C131.296 34.2218 131.057 33.8028 130.878 33.4437C130.699 33.0248 130.519 32.6058 130.46 32.127C130.34 31.6481 130.34 31.1693 130.34 30.6307C130.34 29.7927 130.46 29.0146 130.699 28.3563C130.938 27.6979 131.296 27.0994 131.774 26.6205C132.252 26.1417 132.79 25.7826 133.388 25.5432C133.985 25.3038 134.642 25.1841 135.359 25.1841C136.196 25.1841 136.973 25.3636 137.63 25.7228C138.287 26.0819 138.825 26.5008 139.184 26.9797C139.542 27.4585 139.722 27.9373 139.722 28.4161C139.722 28.6555 139.662 28.8949 139.483 29.0745C139.303 29.2541 139.124 29.3738 138.885 29.3738C138.586 29.3738 138.407 29.3139 138.287 29.1942C138.168 29.0745 137.989 28.8351 137.809 28.5358C137.511 27.9971 137.212 27.638 136.853 27.3388C136.495 27.0994 136.017 26.9797 135.479 26.9797C134.583 26.9797 133.925 27.3388 133.388 27.9971C132.85 28.6555 132.611 29.6132 132.611 30.8102C132.611 31.6481 132.73 32.3065 132.969 32.8452C133.208 33.3839 133.507 33.8028 133.925 34.0423C134.344 34.2817 134.822 34.4612 135.419 34.4612C136.017 34.4612 136.555 34.2817 136.973 33.9824C137.391 33.6831 137.69 33.2043 137.929 32.6656C137.989 32.3664 138.108 32.1868 138.287 32.0073C138.407 31.8277 138.646 31.7679 138.945 31.7679C139.184 31.7679 139.423 31.8277 139.602 32.0073C139.781 32.1868 139.662 32.3065 139.662 32.6058Z" fill="#1596B7"/>
<path d="M143.725 26.501V29.4937H148.326V26.501C148.326 26.0821 148.446 25.723 148.625 25.5434C148.804 25.304 149.043 25.2441 149.402 25.2441C149.76 25.2441 149.999 25.3638 150.179 25.5434C150.358 25.7828 150.477 26.0821 150.477 26.501V34.7607C150.477 35.1797 150.358 35.5388 150.179 35.7183C149.999 35.9577 149.701 36.0176 149.402 36.0176C149.103 36.0176 148.804 35.8979 148.625 35.7183C148.446 35.4789 148.326 35.1797 148.326 34.7607V31.2294H143.725V34.7607C143.725 35.1797 143.606 35.5388 143.426 35.7183C143.247 35.9577 142.948 36.0176 142.65 36.0176C142.351 36.0176 142.052 35.8979 141.873 35.7183C141.693 35.4789 141.574 35.1797 141.574 34.7607V26.501C141.574 26.0821 141.693 25.723 141.873 25.5434C142.052 25.304 142.291 25.2441 142.65 25.2441C143.008 25.2441 143.247 25.3638 143.426 25.5434C143.606 25.723 143.725 26.0821 143.725 26.501Z" fill="#1596B7"/>
<path d="M157.349 25.1841C158.425 25.1841 159.381 25.4235 160.158 25.8425C160.935 26.2614 161.532 26.9198 161.951 27.7577C162.369 28.5957 162.548 29.5533 162.548 30.6307C162.548 31.4686 162.429 32.1868 162.249 32.8452C162.01 33.5036 161.712 34.1021 161.293 34.5809C160.875 35.0597 160.337 35.4189 159.68 35.7181C159.023 35.9575 158.306 36.0772 157.469 36.0772C156.632 36.0772 155.915 35.9575 155.258 35.6583C154.601 35.4189 154.063 34.9999 153.645 34.5211C153.226 34.0422 152.868 33.4437 152.689 32.7853C152.45 32.127 152.33 31.3489 152.33 30.5708C152.33 29.7927 152.45 29.0146 152.689 28.3563C152.928 27.6979 153.226 27.0994 153.704 26.6205C154.123 26.1417 154.661 25.7826 155.318 25.5432C155.796 25.3038 156.513 25.2439 157.349 25.1841ZM160.337 30.6307C160.337 29.8526 160.218 29.1942 159.979 28.6555C159.74 28.1169 159.381 27.638 158.903 27.3986C158.425 27.0994 157.887 26.9797 157.29 26.9797C156.871 26.9797 156.453 27.0395 156.095 27.2191C155.736 27.3986 155.437 27.638 155.139 27.9373C154.9 28.2366 154.661 28.6555 154.541 29.1343C154.421 29.6132 154.302 30.1518 154.302 30.7504C154.302 31.3489 154.362 31.8876 154.541 32.3664C154.661 32.8452 154.9 33.2642 155.198 33.5634C155.497 33.8627 155.796 34.1021 156.154 34.2817C156.513 34.4612 156.931 34.5211 157.349 34.5211C157.887 34.5211 158.365 34.4014 158.843 34.1021C159.321 33.8028 159.68 33.3839 159.919 32.8452C160.218 32.127 160.337 31.4686 160.337 30.6307Z" fill="#1596B7"/>
<path d="M168.942 25.1841C170.017 25.1841 170.973 25.4235 171.75 25.8425C172.527 26.2614 173.125 26.9198 173.543 27.7577C173.961 28.5957 174.14 29.5533 174.14 30.6307C174.14 31.4686 174.021 32.1868 173.842 32.8452C173.603 33.5036 173.304 34.1021 172.886 34.5809C172.467 35.0597 171.93 35.4189 171.272 35.7181C170.615 35.9575 169.898 36.0772 169.061 36.0772C168.225 36.0772 167.508 35.9575 166.85 35.6583C166.193 35.4189 165.655 34.9999 165.237 34.5211C164.819 34.0422 164.46 33.4437 164.281 32.7853C164.042 32.127 163.922 31.3489 163.922 30.5708C163.922 29.7927 164.042 29.0146 164.281 28.3563C164.52 27.6979 164.819 27.0994 165.297 26.6205C165.715 26.1417 166.253 25.7826 166.91 25.5432C167.448 25.3038 168.165 25.2439 168.942 25.1841ZM171.989 30.6307C171.989 29.8526 171.87 29.1942 171.631 28.6555C171.392 28.1169 171.033 27.638 170.555 27.3986C170.077 27.0994 169.539 26.9797 168.942 26.9797C168.523 26.9797 168.105 27.0395 167.747 27.2191C167.388 27.3986 167.089 27.638 166.791 27.9373C166.552 28.2366 166.313 28.6555 166.193 29.1343C166.074 29.6132 165.954 30.1518 165.954 30.7504C165.954 31.3489 166.014 31.8876 166.193 32.3664C166.313 32.8452 166.552 33.2642 166.85 33.5634C167.149 33.8627 167.448 34.1021 167.806 34.2817C168.165 34.4612 168.583 34.5211 169.002 34.5211C169.539 34.5211 170.017 34.4014 170.495 34.1021C170.973 33.8028 171.332 33.3839 171.571 32.8452C171.81 32.127 171.989 31.4686 171.989 30.6307Z" fill="#1596B7"/>
<path d="M178.024 26.501V34.1622H182.327C182.685 34.1622 182.924 34.222 183.104 34.4016C183.283 34.5811 183.402 34.7607 183.402 35.06C183.402 35.2994 183.343 35.5388 183.104 35.7183C182.924 35.8979 182.685 35.9577 182.327 35.9577H177.188C176.71 35.9577 176.411 35.838 176.172 35.6585C175.993 35.4789 175.873 35.1198 175.873 34.641V26.501C175.873 26.0821 175.993 25.723 176.172 25.5434C176.351 25.304 176.59 25.2441 176.949 25.2441C177.248 25.2441 177.546 25.3638 177.726 25.5434C177.905 25.723 178.024 26.0821 178.024 26.501Z" fill="#1596B7"/>
<path d="M90.3044 35.3593V27.0997C90.3044 26.6807 90.424 26.3216 90.6032 26.142C90.7825 25.9026 91.0813 25.8428 91.38 25.8428C91.6788 25.8428 91.9776 25.9625 92.1568 26.142C92.3361 26.3814 92.4556 26.6807 92.4556 27.0997V35.3593C92.4556 35.7783 92.3361 36.1374 92.1568 36.317C91.9776 36.5564 91.6788 36.6162 91.38 36.6162C91.0813 36.6162 90.8422 36.4965 90.6032 36.317C90.3642 36.1374 90.3044 35.7783 90.3044 35.3593Z" fill="#1AB4DB"/>
<path d="M96.1006 25.9624H98.8493C99.5664 25.9624 100.164 26.0222 100.702 26.142C101.24 26.2617 101.658 26.5011 102.076 26.92C103.152 27.8777 103.689 29.2543 103.689 31.1696C103.689 31.8279 103.63 32.3666 103.51 32.9053C103.391 33.444 103.211 33.9228 102.972 34.3418C102.733 34.7607 102.435 35.1198 102.076 35.4789C101.777 35.7184 101.479 35.9578 101.12 36.0775C100.761 36.257 100.403 36.3169 100.044 36.3767C99.6859 36.4366 99.2079 36.4964 98.7298 36.4964H95.9811C95.6226 36.4964 95.3238 36.4366 95.0848 36.3169C94.9055 36.1972 94.786 36.0176 94.7263 35.8381C94.6665 35.5987 94.6665 35.3592 94.6665 35.0001V27.2792C94.6665 26.8003 94.786 26.5011 94.9653 26.2617C95.3238 26.0821 95.6226 26.0223 96.1006 25.9624ZM96.9372 27.6981V34.8206H98.5506C98.9091 34.8206 99.2079 34.8206 99.3871 34.8206C99.5664 34.8206 99.8054 34.7607 99.9847 34.7009C100.224 34.641 100.403 34.5213 100.522 34.4016C101.24 33.8031 101.598 32.7856 101.598 31.2893C101.598 30.2718 101.419 29.4937 101.12 28.955C100.821 28.4164 100.403 28.1171 99.9847 27.9974C99.5664 27.8777 98.9688 27.758 98.3115 27.758C98.3713 27.6981 96.9372 27.6981 96.9372 27.6981Z" fill="#1AB4DB"/>
<path d="M109.187 34.9403L107.514 28.2368V35.4789C107.514 35.8979 107.454 36.1972 107.275 36.3767C107.096 36.5563 106.857 36.676 106.558 36.676C106.259 36.676 106.02 36.5563 105.841 36.3767C105.662 36.1972 105.542 35.8979 105.542 35.4789V27.1595C105.542 26.6806 105.662 26.3814 105.901 26.2018C106.14 26.0223 106.438 25.9624 106.857 25.9624H107.514C107.932 25.9624 108.171 26.0223 108.35 26.0821C108.53 26.142 108.649 26.2617 108.769 26.4412C108.888 26.6208 108.948 26.92 109.068 27.339L110.621 33.0848L112.175 27.339C112.294 26.92 112.354 26.6208 112.474 26.4412C112.533 26.2617 112.713 26.142 112.892 26.0821C113.071 26.0223 113.37 25.9624 113.728 25.9624H114.386C114.804 25.9624 115.103 26.0223 115.342 26.2018C115.581 26.3814 115.7 26.6806 115.7 27.1595V35.4789C115.7 35.8979 115.641 36.1972 115.461 36.3767C115.282 36.5563 115.043 36.676 114.744 36.676C114.445 36.676 114.206 36.5563 114.027 36.3767C113.848 36.1972 113.728 35.8979 113.728 35.4789V28.2368L112.055 34.9403C111.936 35.3592 111.876 35.7184 111.816 35.8979C111.756 36.0775 111.637 36.257 111.458 36.4366C111.278 36.6161 110.98 36.676 110.621 36.676C110.382 36.676 110.143 36.6161 109.964 36.4964C109.785 36.3767 109.665 36.257 109.546 36.0775C109.426 35.8979 109.366 35.7184 109.307 35.5388C109.307 35.3592 109.247 35.1198 109.187 34.9403Z" fill="#1AB4DB"/>
<path d="M129.503 33.3243C129.503 33.9826 129.324 34.5213 129.025 35.06C128.727 35.5987 128.189 35.9578 127.591 36.257C126.934 36.5563 126.217 36.676 125.38 36.676C124.365 36.676 123.468 36.4964 122.811 36.0775C122.333 35.7782 121.915 35.4191 121.676 34.9403C121.437 34.4615 121.257 33.9826 121.257 33.5637C121.257 33.3243 121.317 33.0848 121.496 32.9053C121.676 32.7257 121.915 32.606 122.154 32.606C122.393 32.606 122.572 32.6659 122.751 32.8454C122.93 33.025 123.05 33.2046 123.169 33.5038C123.289 33.8629 123.468 34.1023 123.588 34.3418C123.707 34.5812 123.946 34.7607 124.245 34.8804C124.544 35.0001 124.902 35.1198 125.38 35.1198C126.038 35.1198 126.516 35.0001 126.934 34.7009C127.352 34.4016 127.532 34.0425 127.532 33.6235C127.532 33.2644 127.412 32.9651 127.233 32.7856C126.994 32.5462 126.755 32.4265 126.396 32.3068C126.038 32.1871 125.619 32.0674 125.022 31.9477C124.245 31.7681 123.648 31.5885 123.11 31.3491C122.572 31.1097 122.213 30.8105 121.915 30.3915C121.616 29.9725 121.496 29.4937 121.496 28.8952C121.496 28.2966 121.676 27.8178 121.974 27.339C122.273 26.8602 122.751 26.5609 123.349 26.3215C123.946 26.0821 124.663 25.9624 125.44 25.9624C126.097 25.9624 126.635 26.0223 127.113 26.2018C127.591 26.3814 127.95 26.5609 128.308 26.8602C128.607 27.0996 128.846 27.3989 128.966 27.6981C129.085 27.9974 129.205 28.2966 129.205 28.5361C129.205 28.7755 129.145 29.0149 128.966 29.1944C128.786 29.374 128.547 29.4937 128.308 29.4937C128.069 29.4937 127.89 29.4338 127.771 29.3141C127.651 29.1944 127.532 29.0149 127.352 28.7156C127.173 28.2966 126.934 27.9974 126.635 27.758C126.396 27.5186 125.918 27.3989 125.321 27.3989C124.783 27.3989 124.305 27.5186 124.006 27.758C123.648 27.9974 123.528 28.2967 123.528 28.6558C123.528 28.8353 123.588 29.0747 123.707 29.1944C123.827 29.374 124.006 29.4937 124.185 29.6134C124.365 29.7331 124.604 29.793 124.783 29.8528C124.962 29.9127 125.321 30.0324 125.799 30.1521C126.396 30.2718 126.934 30.4513 127.412 30.6309C127.89 30.8104 128.308 30.99 128.607 31.2294C128.966 31.4688 129.205 31.7681 129.384 32.1272C129.444 32.3666 129.503 32.7856 129.503 33.3243Z" fill="#1AB4DB"/>
<path d="M140.259 33.2044C140.259 33.5635 140.2 33.9227 140.02 34.2818C139.841 34.6409 139.602 35.0598 139.244 35.419C138.885 35.7781 138.467 36.0773 137.869 36.3168C137.332 36.5562 136.674 36.6759 135.957 36.6759C135.419 36.6759 134.882 36.616 134.463 36.4963C133.985 36.3766 133.567 36.2569 133.208 36.0175C132.85 35.7781 132.491 35.4788 132.193 35.1197C131.894 34.8204 131.655 34.4015 131.476 34.0424C131.296 33.6234 131.117 33.2044 131.057 32.7256C130.938 32.2468 130.938 31.768 130.938 31.2293C130.938 30.3914 131.057 29.6133 131.296 28.9549C131.535 28.2965 131.894 27.698 132.372 27.2192C132.85 26.7404 133.388 26.3812 133.985 26.1418C134.583 25.9024 135.24 25.7827 135.957 25.7827C136.794 25.7827 137.571 25.9623 138.228 26.3214C138.885 26.6805 139.423 27.0995 139.781 27.5783C140.14 28.0571 140.319 28.5359 140.319 29.0147C140.319 29.2542 140.259 29.4936 140.08 29.6731C139.901 29.8527 139.722 29.9724 139.483 29.9724C139.184 29.9724 139.005 29.9125 138.885 29.7928C138.766 29.6731 138.586 29.4337 138.407 29.1345C138.108 28.5958 137.81 28.2367 137.451 27.9374C137.092 27.698 136.614 27.5783 136.077 27.5783C135.18 27.5783 134.523 27.9374 133.985 28.5958C133.447 29.2542 133.208 30.2118 133.208 31.4088C133.208 32.2468 133.328 32.9052 133.567 33.4438C133.806 33.9825 134.105 34.4015 134.523 34.6409C134.941 34.8803 135.419 35.0599 136.017 35.0599C136.614 35.0599 137.152 34.8803 137.571 34.581C137.989 34.2818 138.288 33.803 138.527 33.2643C138.586 32.965 138.706 32.7855 138.885 32.6059C139.005 32.4263 139.244 32.3665 139.542 32.3665C139.781 32.3665 140.02 32.4263 140.2 32.6059C140.2 32.7256 140.259 32.9052 140.259 33.2044Z" fill="#1AB4DB"/>
<path d="M144.323 27.0997V30.0923H148.924V27.0997C148.924 26.6807 149.043 26.3216 149.223 26.142C149.402 25.9026 149.641 25.8428 150 25.8428C150.298 25.8428 150.597 25.9625 150.776 26.142C150.956 26.3814 151.075 26.6807 151.075 27.0997V35.3593C151.075 35.7783 150.956 36.1374 150.776 36.317C150.597 36.5564 150.298 36.6162 150 36.6162C149.701 36.6162 149.402 36.4965 149.223 36.317C149.043 36.0776 148.924 35.7783 148.924 35.3593V31.828H144.323V35.3593C144.323 35.7783 144.203 36.1374 144.024 36.317C143.845 36.5564 143.546 36.6162 143.247 36.6162C142.948 36.6162 142.65 36.4965 142.47 36.317C142.291 36.0776 142.172 35.7783 142.172 35.3593V27.0997C142.172 26.6807 142.291 26.3216 142.47 26.142C142.65 25.9026 142.889 25.8428 143.247 25.8428C143.606 25.8428 143.845 25.9625 144.024 26.142C144.203 26.3216 144.323 26.6807 144.323 27.0997Z" fill="#1AB4DB"/>
<path d="M157.947 25.7827C159.022 25.7827 159.979 26.0221 160.755 26.4411C161.532 26.8601 162.13 27.5184 162.548 28.3564C162.966 29.1943 163.146 30.1519 163.146 31.2293C163.146 32.0672 163.026 32.7855 162.847 33.4438C162.608 34.1022 162.309 34.7007 161.891 35.1796C161.472 35.6584 160.935 36.0175 160.277 36.3168C159.62 36.5562 158.903 36.6759 158.066 36.6759C157.23 36.6759 156.513 36.5562 155.855 36.2569C155.198 35.9576 154.66 35.5985 154.242 35.1197C153.824 34.6409 153.465 34.0424 153.286 33.384C153.047 32.7256 152.927 31.9475 152.927 31.1694C152.927 30.3914 153.047 29.6133 153.286 28.9549C153.525 28.2965 153.824 27.698 154.302 27.2192C154.72 26.7404 155.258 26.3812 155.915 26.1418C156.393 25.9024 157.11 25.7827 157.947 25.7827ZM160.935 31.2293C160.935 30.4512 160.815 29.7928 160.576 29.2542C160.337 28.7155 159.979 28.2367 159.501 27.9973C159.022 27.698 158.485 27.5783 157.887 27.5783C157.469 27.5783 157.051 27.6381 156.692 27.8177C156.334 27.9973 156.035 28.2367 155.736 28.5359C155.497 28.8352 155.258 29.2542 155.138 29.733C155.019 30.2118 154.899 30.7505 154.899 31.349C154.899 31.9475 154.959 32.4862 155.138 32.965C155.258 33.4438 155.497 33.8628 155.796 34.1621C156.094 34.4613 156.393 34.7007 156.752 34.8803C157.11 35.0599 157.529 35.1197 157.947 35.1197C158.485 35.1197 158.963 35 159.441 34.7007C159.919 34.4015 160.277 33.9825 160.516 33.4438C160.815 32.7256 160.935 32.0672 160.935 31.2293Z" fill="#1AB4DB"/>
<path d="M169.539 25.7827C170.615 25.7827 171.571 26.0221 172.348 26.4411C173.125 26.8601 173.722 27.5184 174.141 28.3564C174.559 29.1943 174.738 30.1519 174.738 31.2293C174.738 32.0672 174.619 32.7855 174.439 33.4438C174.2 34.1022 173.902 34.7007 173.483 35.1796C173.065 35.6584 172.527 36.0175 171.87 36.3168C171.213 36.5562 170.496 36.6759 169.659 36.6759C168.822 36.6759 168.105 36.5562 167.448 36.2569C166.791 36.0175 166.253 35.5985 165.835 35.1197C165.416 34.6409 165.058 34.0424 164.879 33.384C164.64 32.7256 164.52 31.9475 164.52 31.1694C164.52 30.3914 164.64 29.6133 164.879 28.9549C165.118 28.2965 165.416 27.698 165.894 27.2192C166.313 26.7404 166.85 26.3812 167.508 26.1418C168.046 25.9024 168.763 25.7827 169.539 25.7827ZM172.587 31.2293C172.587 30.4512 172.467 29.7928 172.228 29.2542C171.989 28.7155 171.631 28.2367 171.153 27.9973C170.675 27.698 170.137 27.5783 169.539 27.5783C169.121 27.5783 168.703 27.6381 168.344 27.8177C167.986 27.9973 167.687 28.2367 167.388 28.5359C167.149 28.8352 166.91 29.2542 166.791 29.733C166.671 30.2118 166.552 30.7505 166.552 31.349C166.552 31.9475 166.611 32.4862 166.791 32.965C166.91 33.4438 167.149 33.8628 167.448 34.1621C167.747 34.4613 168.046 34.7007 168.404 34.8803C168.763 35.0599 169.181 35.1197 169.599 35.1197C170.137 35.1197 170.615 35 171.093 34.7007C171.571 34.4015 171.93 33.9825 172.169 33.4438C172.408 32.7256 172.587 32.0672 172.587 31.2293Z" fill="#1AB4DB"/>
<path d="M178.622 27.0997V34.7608H182.924C183.283 34.7608 183.522 34.8207 183.701 35.0002C183.881 35.1798 184 35.3593 184 35.6586C184 35.9579 183.94 36.1374 183.701 36.317C183.522 36.4965 183.283 36.5564 182.924 36.5564H177.786C177.308 36.5564 177.009 36.4367 176.77 36.2571C176.531 36.0776 176.471 35.7184 176.471 35.2396V27.0997C176.471 26.6807 176.59 26.3216 176.77 26.142C176.949 25.9026 177.188 25.8428 177.547 25.8428C177.905 25.8428 178.144 25.9625 178.323 26.142C178.503 26.3216 178.622 26.6807 178.622 27.0997Z" fill="#1AB4DB"/>
<path d="M89.7069 41.105H90.0057V43.4991L91.8581 41.105H92.1569V43.9779H91.8581V41.5838L90.0057 43.9779H89.7069C89.7069 44.0378 89.7069 41.105 89.7069 41.105Z" fill="#1AB4DB"/>
<path d="M93.0532 41.8232H93.352V42.7809H94.7264V41.8232H95.0251V43.9779H94.7264V43.0203H93.352V43.9779H93.0532V41.8232Z" fill="#1AB4DB"/>
<path d="M97.9531 43.7986V44.5767H97.6543V44.038H95.6824V44.5767H95.4434V43.7986H95.5629C95.8616 43.7986 95.9214 43.2001 95.9812 42.6015L96.0409 41.8833H97.6543V43.7986H97.9531ZM95.9812 43.7986H97.3555V42.1227H96.2799V42.6015C96.2202 43.0803 96.1604 43.619 95.9812 43.7986Z" fill="#1AB4DB"/>
<path d="M98.5507 41.8232H98.8494V43.559L100.284 41.8232H100.523V43.9779H100.224V42.2422L98.7897 43.9779H98.5507V41.8232Z" fill="#1AB4DB"/>
<path d="M103.211 43.4395C103.211 43.7986 102.913 44.038 102.375 44.038H101.419V41.8833H102.375C102.853 41.8833 103.152 42.0629 103.152 42.422C103.152 42.6614 103.032 42.8409 102.793 42.9008C103.032 42.9606 103.211 43.1402 103.211 43.4395ZM101.658 42.8409H102.315C102.674 42.8409 102.853 42.7212 102.853 42.4818C102.853 42.2424 102.674 42.1227 102.315 42.1227H101.658V42.8409ZM102.913 43.4395C102.913 43.2001 102.733 43.0804 102.375 43.0804H101.658V43.8584H102.315C102.733 43.7986 102.913 43.6789 102.913 43.4395Z" fill="#1AB4DB"/>
<path d="M103.869 41.8232H104.168V43.559L105.602 41.8232H105.841V43.9779H105.542V42.2422L104.108 43.9779H103.869V41.8232Z" fill="#1AB4DB"/>
<path d="M108.828 43.7986V44.5767H108.53V44.038H106.558V44.5767H106.259V43.7986H106.438C106.737 43.7986 106.797 43.2001 106.857 42.6015V41.8833H108.47V43.7986H108.828ZM106.857 43.7986H108.231V42.1227H107.155V42.6015C107.096 43.0803 107.036 43.619 106.857 43.7986Z" fill="#1AB4DB"/>
<path d="M111.278 41.8232L110.203 44.2772C110.024 44.6962 109.785 44.8159 109.486 44.8159C109.307 44.8159 109.068 44.756 108.948 44.6363L109.068 44.3969C109.187 44.5166 109.307 44.5765 109.486 44.5765C109.665 44.5765 109.785 44.5166 109.964 44.2173L110.083 43.9779L109.127 41.8232H109.426L110.263 43.6787L111.099 41.8232H111.278Z" fill="#1AB4DB"/>
<path d="M113.25 42.661V43.9777H113.011V43.6186C112.892 43.858 112.593 43.9777 112.294 43.9777C111.816 43.9777 111.517 43.7383 111.517 43.3194C111.517 42.9602 111.756 42.7208 112.354 42.7208H113.071V42.661C113.071 42.3019 112.892 42.0624 112.473 42.0624C112.175 42.0624 111.936 42.1821 111.756 42.3019L111.637 42.0624C111.876 41.8829 112.175 41.7632 112.533 41.7632C112.951 41.823 113.25 42.1223 113.25 42.661ZM112.951 43.3792V43.0201H112.294C111.876 43.0201 111.756 43.1996 111.756 43.3792C111.756 43.6186 111.936 43.7982 112.294 43.7982C112.653 43.7982 112.892 43.6785 112.951 43.3792Z" fill="#1AB4DB"/>
<path d="M115.82 41.8232V43.9779H115.521V42.0626H114.505V42.6013C114.445 43.3794 114.386 44.0378 113.908 44.0378C113.848 44.0378 113.788 44.0378 113.728 43.9779V43.7385C113.788 43.7385 113.788 43.7385 113.848 43.7385C114.206 43.7385 114.266 43.14 114.266 42.6013L114.326 41.8232C114.266 41.8232 115.82 41.8232 115.82 41.8232Z" fill="#1AB4DB"/>
<path d="M118.449 43.3198C118.449 43.7986 118.15 44.038 117.553 44.038H116.656V41.8833H116.955V42.6614H117.612C118.15 42.6015 118.449 42.8409 118.449 43.3198ZM118.15 43.3198C118.15 43.0205 117.971 42.8409 117.553 42.8409H116.955V43.7986H117.553C117.911 43.7986 118.15 43.619 118.15 43.3198Z" fill="#1AB4DB"/>
<path d="M118.987 41.8232H119.286V42.7809H120.66V41.8232H120.959V43.9779H120.66V43.0203H119.286V43.9779H118.987V41.8232Z" fill="#1AB4DB"/>
<path d="M121.556 42.9604C121.556 42.3021 122.034 41.8232 122.632 41.8232C123.229 41.8232 123.707 42.3021 123.707 42.9604C123.707 43.6188 123.229 44.0976 122.632 44.0976C122.034 44.0976 121.556 43.559 121.556 42.9604ZM123.468 42.9604C123.468 42.4218 123.11 42.1225 122.691 42.1225C122.273 42.1225 121.855 42.4816 121.855 42.9604C121.855 43.4393 122.213 43.7984 122.691 43.7984C123.17 43.7984 123.468 43.4393 123.468 42.9604Z" fill="#1AB4DB"/>
<path d="M124.186 42.9604C124.186 42.3021 124.664 41.8232 125.321 41.8232C125.679 41.8232 125.978 41.9429 126.157 42.2422L125.918 42.3619C125.799 42.1225 125.56 42.0626 125.261 42.0626C124.783 42.0626 124.425 42.4218 124.425 42.9006C124.425 43.3794 124.783 43.7385 125.261 43.7385C125.5 43.7385 125.739 43.6188 125.918 43.4393L126.157 43.559C125.978 43.8582 125.679 43.9779 125.321 43.9779C124.664 44.0378 124.186 43.6188 124.186 42.9604Z" fill="#1AB4DB"/>
<path d="M128.189 42.1227H127.352V44.038H127.054V42.1227H126.217V41.8833H128.129L128.189 42.1227Z" fill="#1AB4DB"/>
<path d="M130.4 43.3198C130.4 43.7986 130.101 44.038 129.504 44.038H128.607V41.8833H128.906V42.6614H129.563C130.101 42.6015 130.4 42.8409 130.4 43.3198ZM130.101 43.3198C130.101 43.0205 129.922 42.8409 129.504 42.8409H128.966V43.7986H129.504C129.922 43.7986 130.101 43.619 130.101 43.3198Z" fill="#1AB4DB"/>
<path d="M131.954 42.9003C131.954 42.7208 132.073 42.6011 132.252 42.6011C132.432 42.6011 132.551 42.7208 132.551 42.9003C132.551 43.0799 132.432 43.1996 132.252 43.1996C132.073 43.1996 131.954 43.0799 131.954 42.9003Z" fill="#1AB4DB"/>
<path d="M136.674 42.1225C136.674 42.721 136.196 43.0801 135.479 43.0801H134.702V43.9779H134.404V41.105H135.479C136.256 41.105 136.674 41.524 136.674 42.1225ZM136.375 42.1225C136.375 41.6437 136.077 41.4042 135.479 41.4042H134.702V42.8407H135.479C136.077 42.8407 136.375 42.6013 136.375 42.1225Z" fill="#1AB4DB"/>
<path d="M138.825 42.661V43.9777H138.527V43.6186C138.407 43.858 138.108 43.9777 137.81 43.9777C137.331 43.9777 137.033 43.7383 137.033 43.3194C137.033 42.9602 137.272 42.7208 137.869 42.7208H138.586V42.661C138.586 42.3019 138.407 42.0624 137.989 42.0624C137.69 42.0624 137.451 42.1821 137.272 42.3019L137.152 42.0624C137.391 41.8829 137.69 41.7632 138.049 41.7632C138.527 41.823 138.825 42.1223 138.825 42.661ZM138.586 43.3792V43.0201H137.929C137.511 43.0201 137.391 43.1996 137.391 43.3792C137.391 43.6186 137.571 43.7982 137.929 43.7982C138.288 43.7982 138.467 43.6785 138.586 43.3792Z" fill="#1AB4DB"/>
<path d="M141.156 43.3794C141.156 43.7984 140.738 44.0378 140.2 44.0378C139.901 44.0378 139.543 43.9779 139.363 43.7984L139.483 43.559C139.662 43.7385 139.961 43.7984 140.2 43.7984C140.618 43.7984 140.917 43.6188 140.917 43.3794C140.917 43.14 140.678 43.0203 140.319 43.0203H139.901V42.7809H140.26C140.558 42.7809 140.797 42.6612 140.797 42.4218C140.797 42.1824 140.558 42.0626 140.2 42.0626C139.961 42.0626 139.722 42.1225 139.483 42.2422L139.423 42.0028C139.662 41.8831 139.961 41.8232 140.2 41.8232C140.678 41.8232 141.096 42.0627 141.096 42.4218C141.096 42.6612 140.917 42.8407 140.678 42.9006C140.977 42.9604 141.156 43.14 141.156 43.3794Z" fill="#1AB4DB"/>
<path d="M143.606 43.4395C143.606 43.7986 143.307 44.038 142.769 44.038H141.753V41.8833H142.709C143.188 41.8833 143.486 42.0629 143.486 42.422C143.486 42.6614 143.367 42.8409 143.128 42.9008C143.486 42.9606 143.606 43.1402 143.606 43.4395ZM142.112 42.8409H142.769C143.128 42.8409 143.307 42.7212 143.307 42.4818C143.307 42.2424 143.128 42.1227 142.769 42.1227H142.112V42.8409ZM143.367 43.4395C143.367 43.2001 143.188 43.0804 142.829 43.0804H142.112V43.8584H142.829C143.128 43.7986 143.367 43.6789 143.367 43.4395Z" fill="#1AB4DB"/>
<path d="M144.323 41.8232H144.622V43.559L146.056 41.8232H146.295V43.9779H145.996V42.2422L144.562 43.9779H144.323V41.8232Z" fill="#1AB4DB"/>
<path d="M148.685 42.1227H147.848V44.038H147.549V42.1227H146.713V41.8833H148.625L148.685 42.1227Z" fill="#1AB4DB"/>
<path d="M149.103 41.8232H149.402V43.559L150.836 41.8232H151.075V43.9779H150.776V42.2422L149.342 43.9779H149.103V41.8232Z" fill="#1AB4DB"/>
<path d="M153.824 43.0201H152.031C152.091 43.4989 152.39 43.7982 152.868 43.7982C153.107 43.7982 153.346 43.6785 153.525 43.4989L153.704 43.6785C153.525 43.9179 153.226 44.0376 152.868 44.0376C152.21 44.0376 151.732 43.5588 151.732 42.9004C151.732 42.242 152.21 41.7632 152.808 41.7632C153.406 41.7632 153.884 42.242 153.884 42.9004C153.824 42.9602 153.824 43.0201 153.824 43.0201ZM152.031 42.7807H153.585C153.525 42.3617 153.226 42.0624 152.808 42.0624C152.39 42.0624 152.091 42.3617 152.031 42.7807Z" fill="#1AB4DB"/>
<path d="M155.497 42.9003C155.497 42.7208 155.617 42.6011 155.796 42.6011C155.975 42.6011 156.095 42.7208 156.095 42.9003C156.095 43.0799 155.975 43.1996 155.796 43.1996C155.617 43.1996 155.497 43.0799 155.497 42.9003Z" fill="#1AB4DB"/>
<path d="M160.636 43.7385V44.6363H160.337V43.9779H157.827V44.6363H157.529V43.7385H157.648C158.066 43.7385 158.126 42.9604 158.186 42.0626L158.246 41.105H160.218V43.7385H160.636ZM158.126 43.7385H159.919V41.3444H158.544V42.0626C158.425 42.8407 158.365 43.5589 158.126 43.7385Z" fill="#1AB4DB"/>
<path d="M160.875 42.9604C160.875 42.3021 161.353 41.8232 161.951 41.8232C162.548 41.8232 163.026 42.3021 163.026 42.9604C163.026 43.6188 162.548 44.0976 161.951 44.0976C161.353 44.0976 160.875 43.559 160.875 42.9604ZM162.787 42.9604C162.787 42.4218 162.429 42.1225 162.01 42.1225C161.592 42.1225 161.174 42.4816 161.174 42.9604C161.174 43.4393 161.532 43.7984 162.01 43.7984C162.488 43.7984 162.787 43.4393 162.787 42.9604Z" fill="#1AB4DB"/>
<path d="M163.504 42.9604C163.504 42.3021 163.982 41.8232 164.639 41.8232C164.998 41.8232 165.297 41.9429 165.476 42.2422L165.237 42.3619C165.118 42.1225 164.879 42.0626 164.58 42.0626C164.102 42.0626 163.743 42.4218 163.743 42.9006C163.743 43.3794 164.102 43.7385 164.58 43.7385C164.819 43.7385 165.058 43.6188 165.237 43.4393L165.476 43.559C165.297 43.8582 164.998 43.9779 164.639 43.9779C163.982 44.0378 163.504 43.6188 163.504 42.9604Z" fill="#1AB4DB"/>
<path d="M167.567 42.1227H166.731V44.038H166.432V42.1227H165.595V41.8833H167.508L167.567 42.1227Z" fill="#1AB4DB"/>
<path d="M167.986 41.8232H168.285V43.559L169.719 41.8232H169.958V43.9779H169.659V42.2422L168.225 43.9779H167.986V41.8232Z" fill="#1AB4DB"/>
<path d="M172.706 43.0801H172.228V44.0378H171.929V43.0801H171.451L170.794 44.0378H170.436L171.212 42.9006L170.495 41.8232H170.794L171.451 42.7809H171.929V41.8232H172.228V42.7809H172.706L173.364 41.8232H173.662L172.945 42.9006L173.722 44.0378H173.364L172.706 43.0801Z" fill="#1AB4DB"/>
<path d="M176.053 43.0201H174.26C174.32 43.4989 174.618 43.7982 175.097 43.7982C175.336 43.7982 175.575 43.6785 175.754 43.4989L175.933 43.6785C175.754 43.9179 175.455 44.0376 175.097 44.0376C174.439 44.0376 173.961 43.5588 173.961 42.9004C173.961 42.242 174.439 41.7632 175.037 41.7632C175.634 41.7632 176.112 42.242 176.112 42.9004C176.053 42.9602 176.053 43.0201 176.053 43.0201ZM174.26 42.7807H175.814C175.754 42.3617 175.455 42.0624 175.037 42.0624C174.618 42.0624 174.26 42.3617 174.26 42.7807Z" fill="#1AB4DB"/>
<path d="M176.71 41.8232H177.009V42.7809H178.383V41.8232H178.682V43.9779H178.383V43.0203H177.009V43.9779H176.71V41.8232Z" fill="#1AB4DB"/>
<path d="M179.459 41.8232H179.758V43.559L181.192 41.8232H181.431V43.9779H181.132V42.2422L179.698 43.9779H179.459V41.8232Z" fill="#1AB4DB"/>
<path d="M184 41.8232V43.9779H183.761V43.2597H182.984L182.506 43.9779H182.207L182.745 43.1998C182.387 43.14 182.207 42.9006 182.207 42.5415C182.207 42.0627 182.566 41.8232 183.163 41.8232H184ZM183.044 43.0801H183.701V42.1225H183.044C182.626 42.1225 182.387 42.2422 182.387 42.6013C182.387 42.9604 182.685 43.0801 183.044 43.0801Z" fill="#1AB4DB"/>
</g>
<defs>
<clipPath id="clip0_261_4956">
<rect width="184" height="70" fill="white"/>
</clipPath>
</defs>
</svg>
