<svg width="11" height="10" viewBox="0 0 11 10" fill="none" xmlns="http://www.w3.org/2000/svg">
<g clip-path="url(#clip0_18_10937)">
<path d="M10.4739 3.54645C10.4419 3.44994 10.3815 3.36473 10.3001 3.30144C10.2188 3.23815 10.1201 3.19958 10.0164 3.19054L7.1301 2.93528L5.98881 0.333574C5.90462 0.142911 5.71298 0.0195312 5.50004 0.0195312C5.28711 0.0195312 5.09544 0.14293 5.0113 0.334049L3.86998 2.9353L0.98325 3.19054C0.879657 3.19979 0.781126 3.23844 0.699875 3.3017C0.618624 3.36497 0.558226 3.45007 0.526168 3.54645C0.460327 3.74368 0.521129 3.95999 0.681582 4.09634L2.86328 5.95978L2.21994 8.71976C2.17287 8.92269 2.25373 9.13247 2.42663 9.25418C2.51954 9.31957 2.62827 9.35286 2.7379 9.35286C2.83244 9.35286 2.92619 9.32804 3.01037 9.279L5.50004 7.82979L7.98882 9.279C8.17093 9.38572 8.40051 9.37596 8.57301 9.25418C8.65746 9.19464 8.72208 9.11224 8.75883 9.01722C8.79558 8.9222 8.80283 8.81876 8.7797 8.71976L8.13638 5.95978L10.3181 4.09672C10.3965 4.02996 10.4531 3.94222 10.4809 3.84439C10.5086 3.74656 10.5062 3.64296 10.4739 3.54645Z" fill="#FFE784"/>
</g>
<defs>
<clipPath id="clip0_18_10937">
<rect width="10" height="10" fill="white" transform="translate(0.5)"/>
</clipPath>
</defs>
</svg>
