<svg width="19" height="21" viewBox="0 0 19 21" fill="none" xmlns="http://www.w3.org/2000/svg">
<path d="M16.8605 7.48873C18.9465 8.64487 18.9475 12.1155 16.8605 13.2706L3.91486 20.442C1.69534 21.6711 -0.677782 19.1253 0.179498 16.4348L1.59934 11.9786C1.66751 11.7639 1.79022 11.5787 1.95101 11.4479C2.1118 11.317 2.30297 11.2469 2.49886 11.2467H8.29918C8.49013 11.2467 8.67327 11.1581 8.8083 11.0002C8.94332 10.8423 9.01918 10.6282 9.01918 10.4049C9.01918 10.1816 8.94332 9.9675 8.8083 9.80962C8.67327 9.65174 8.49013 9.56305 8.29918 9.56305H2.51422C2.31856 9.56311 2.12756 9.49326 1.96679 9.36286C1.80603 9.23247 1.68318 9.04775 1.6147 8.83344L0.179498 4.32562C-0.677782 1.63506 1.69534 -0.911814 3.9139 0.31841L16.8605 7.48873Z" fill="#A5CBD5"/>
</svg>
