<svg width="24" height="24" viewBox="0 0 24 24" fill="none" xmlns="http://www.w3.org/2000/svg">
<path d="M12 22.5C9.9233 22.5 7.89323 21.8842 6.16652 20.7304C4.4398 19.5767 3.09399 17.9368 2.29927 16.0182C1.50455 14.0996 1.29661 11.9884 1.70176 9.95156C2.1069 7.91476 3.10693 6.04383 4.57538 4.57538C6.04383 3.10693 7.91476 2.1069 9.95156 1.70176C11.9884 1.29661 14.0996 1.50455 16.0182 2.29927C17.9368 3.09399 19.5767 4.4398 20.7304 6.16652C21.8842 7.89323 22.5 9.9233 22.5 12C22.497 14.7839 21.3898 17.4528 19.4213 19.4213C17.4528 21.3898 14.7839 22.497 12 22.5ZM12 3C10.22 3 8.47992 3.52785 6.99987 4.51678C5.51983 5.50571 4.36628 6.91132 3.68509 8.55585C3.0039 10.2004 2.82567 12.01 3.17294 13.7558C3.5202 15.5016 4.37737 17.1053 5.63604 18.364C6.89472 19.6226 8.49836 20.4798 10.2442 20.8271C11.99 21.1743 13.7996 20.9961 15.4442 20.3149C17.0887 19.6337 18.4943 18.4802 19.4832 17.0001C20.4722 15.5201 21 13.78 21 12C20.9974 9.61385 20.0484 7.32616 18.3611 5.63889C16.6738 3.95163 14.3862 3.00259 12 3Z" fill="#1F2223"/>
<path d="M9.375 9.75C9.99632 9.75 10.5 9.24632 10.5 8.625C10.5 8.00368 9.99632 7.5 9.375 7.5C8.75368 7.5 8.25 8.00368 8.25 8.625C8.25 9.24632 8.75368 9.75 9.375 9.75Z" fill="#1F2223"/>
<path d="M14.625 9.75C15.2463 9.75 15.75 9.24632 15.75 8.625C15.75 8.00368 15.2463 7.5 14.625 7.5C14.0037 7.5 13.5 8.00368 13.5 8.625C13.5 9.24632 14.0037 9.75 14.625 9.75Z" fill="#1F2223"/>
<path d="M17.25 12H6.75C6.55109 12 6.36032 12.079 6.21967 12.2197C6.07902 12.3603 6 12.5511 6 12.75C6 14.3413 6.63214 15.8674 7.75736 16.9926C8.88258 18.1179 10.4087 18.75 12 18.75C13.5913 18.75 15.1174 18.1179 16.2426 16.9926C17.3679 15.8674 18 14.3413 18 12.75C18 12.5511 17.921 12.3603 17.7803 12.2197C17.6397 12.079 17.4489 12 17.25 12ZM16.4377 13.5C16.348 14.0304 16.1628 14.5402 15.891 15.0045C13.392 14.0115 10.608 14.0115 8.109 15.0045C7.83736 14.5401 7.65212 14.0304 7.56225 13.5H16.4377ZM9.15 16.2225C11.0002 15.6074 12.9998 15.6074 14.85 16.2225C14.049 16.8871 13.0409 17.2509 12 17.2509C10.9591 17.2509 9.95102 16.8871 9.15 16.2225Z" fill="#1F2223"/>
</svg>
