<svg width="24" height="23" viewBox="0 0 24 23" fill="none" xmlns="http://www.w3.org/2000/svg">
<path d="M23.9374 8.51052C23.8607 8.27889 23.7156 8.07438 23.5204 7.92248C23.3251 7.77059 23.0882 7.67802 22.8393 7.65633L15.9123 7.0437L13.1731 0.7996C12.9711 0.34201 12.5112 0.0458984 12.0001 0.0458984C11.4891 0.0458984 11.0291 0.342056 10.8271 0.800742L8.08796 7.04374L1.1598 7.65633C0.911176 7.67851 0.674703 7.77127 0.479701 7.92311C0.284698 8.07495 0.139741 8.27919 0.0628033 8.51052C-0.0952164 8.98386 0.0507092 9.50299 0.435797 9.83024L5.67187 14.3025L4.12786 20.9264C4.01489 21.4135 4.20896 21.917 4.6239 22.209C4.84689 22.366 5.10785 22.4459 5.37097 22.4459C5.59785 22.4459 5.82286 22.3863 6.02489 22.2686L12.0001 18.7905L17.9732 22.2686C18.4102 22.5247 18.9612 22.5013 19.3752 22.209C19.5779 22.0662 19.733 21.8684 19.8212 21.6404C19.9094 21.4123 19.9268 21.164 19.8713 20.9264L18.3273 14.3025L23.5633 9.83115C23.7517 9.67093 23.8876 9.46035 23.9541 9.22556C24.0206 8.99077 24.0148 8.74213 23.9374 8.51052Z" fill="#FFC107"/>
</svg>
